<svg width="100" height="100" viewBox="0 0 100 100" fill="none" xmlns="http://www.w3.org/2000/svg">
<path d="M14.6863 89.6115L6.79623 0.5H93.2037L85.3012 89.6177L50 99.4808L14.6863 89.6115Z" fill="#1CB5E0" stroke="#1CB5E0"/>
<path d="M23.0963 18.9H49.9999H76.8975L76.0109 28.9312H49.9999H34.5312H33.985L34.0331 29.4753L35.0331 40.7815L35.0734 41.2375H35.5312H49.9999H74.9224L71.9949 74.2489L49.9795 80.3928L27.9988 74.249L26.5086 57.4062H36.5049L37.2831 66.1506L37.314 66.4974L37.65 66.5887L49.8562 69.9075L50.0404 69.9575L50.179 69.8882L62.3497 66.5825L62.6858 66.4912L62.7167 66.1443L63.9917 51.8256L64.0402 51.2812H63.4937H49.9999H25.97L23.0963 18.9Z" fill="white" stroke="#1CB5E0"/>
</svg>
