<svg width="100" height="100" viewBox="0 0 100 100" fill="none" xmlns="http://www.w3.org/2000/svg">
<g clip-path="url(#clip0)">
<path d="M83.5306 35.5939C82.0509 35.0103 80.4917 34.4695 78.8632 33.9714C77.4347 33.5367 75.9531 33.1347 74.4244 32.7695C70.4121 31.8103 66.0775 31.0961 61.5408 30.647C59.5591 30.449 57.5367 30.3043 55.4876 30.2123C53.6794 30.1287 51.8468 30.0857 50 30.0857C48.1531 30.0857 46.3203 30.1285 44.5101 30.2123C42.4591 30.3041 40.4367 30.4511 38.455 30.647C33.9183 31.0961 29.5857 31.8103 25.5734 32.7695C24.0449 33.1347 22.5632 33.5369 21.1345 33.9714C19.506 34.4673 17.9468 35.0103 16.4671 35.5939C6.79995 39.4101 1.47339 44.7531 1.47339 50.6367C1.47339 56.5203 6.79995 61.8632 16.4673 65.6816C17.947 66.2652 19.5041 66.806 21.1326 67.3041C22.5611 67.7388 24.0427 68.1408 25.5714 68.5041C29.5837 69.4652 33.9183 70.1775 38.4572 70.6285C40.4388 70.8244 42.4613 70.9693 44.5123 71.0632C46.3205 71.1468 48.1531 71.1877 50 71.1877C51.8468 71.1877 53.6775 71.1468 55.4857 71.0632C57.5367 70.9693 59.5572 70.8244 61.5408 70.6285C66.0775 70.1795 70.4142 69.4652 74.4265 68.5041C75.955 68.1388 77.4367 67.7388 78.8654 67.3021C80.4919 66.8062 82.0511 66.2654 83.5306 65.6816C93.2 61.8632 98.5246 56.5205 98.5246 50.6367C98.5244 44.7531 93.2 39.4101 83.5306 35.5939ZM91.0244 56.0611C88.9386 58.0101 85.7632 59.857 81.8427 61.406C80.5224 61.9263 79.1345 62.4121 77.6855 62.857C76.263 63.2959 74.7835 63.6978 73.2529 64.0611C70.6222 64.6877 67.8406 65.2019 64.9447 65.6C63.014 65.8673 61.0324 66.0816 59.0099 66.2388C56.0773 66.4736 53.063 66.5919 49.9998 66.5919C46.9365 66.5919 43.9222 66.4736 40.9896 66.241C38.9671 66.0818 36.9835 65.8675 35.0529 65.6002C32.157 65.2021 29.3753 64.6878 26.7447 64.0613C25.214 63.698 23.7345 63.2961 22.3121 62.8572C20.863 62.4123 19.4753 61.9265 18.1548 61.4062C14.2345 59.8572 11.0589 58.0103 8.97319 56.0613C7.04663 54.2632 6.06909 52.4388 6.06909 50.6369C6.06909 48.8349 7.04663 47.0103 8.97319 45.2125C11.0589 43.2634 14.2343 41.4166 18.1548 39.8675C19.4751 39.3472 20.863 38.8615 22.3121 38.4166C23.7345 37.9777 25.214 37.5757 26.7447 37.2125C29.3753 36.5859 32.157 36.0716 35.0529 35.6736C36.9835 35.4062 38.9671 35.192 40.9896 35.0328C43.9222 34.8002 46.9365 34.6818 49.9998 34.6818C53.063 34.6818 56.0773 34.8002 59.0099 35.0349C61.0324 35.1921 63.014 35.4064 64.9447 35.6738C67.8406 36.0718 70.6222 36.5861 73.2529 37.2127C74.7835 37.5759 76.263 37.9779 77.6855 38.4168C79.1345 38.8617 80.5222 39.3474 81.8427 39.8677C85.763 41.4168 88.9386 43.2636 91.0244 45.2127C92.9509 47.0107 93.9285 48.8351 93.9285 50.6371C93.9285 52.4388 92.9509 54.2632 91.0244 56.0611Z" fill="#1CB5E0"/>
<path d="M79.7924 72.1546C79.558 70.5813 79.2468 68.9606 78.8638 67.3013C78.5261 65.8467 78.1334 64.3626 77.6853 62.8561C76.5098 58.9018 74.9611 54.7908 73.0816 50.6374C72.2623 48.8222 71.3764 46.9983 70.4316 45.1778C69.5999 43.5701 68.7208 41.9615 67.7973 40.3621C66.8739 38.7626 65.9205 37.1967 64.9428 35.671C63.8378 33.9407 62.6992 32.2627 61.5388 30.6445C58.8815 26.9401 56.0967 23.5451 53.2598 20.5499C52.1793 19.4088 51.0902 18.3267 49.9995 17.3067C48.7558 16.1443 47.5059 15.0655 46.2607 14.0759C38.1222 7.61197 30.8317 5.67051 25.7364 8.61231C20.641 11.5541 18.6772 18.8385 20.2041 29.1199C20.4385 30.6932 20.7487 32.312 21.1316 33.9713C21.4693 35.4259 21.8621 36.91 22.3118 38.4155C23.4856 42.3708 25.036 46.4808 26.9149 50.6371C27.736 52.4512 28.6218 54.2752 29.5659 56.0983C30.3976 57.7061 31.2786 59.3136 32.202 60.913C33.1254 62.5125 34.0761 64.0775 35.0526 65.6016C36.1595 67.3308 37.2952 69.0082 38.4567 70.6281C41.1139 74.3325 43.9008 77.7311 46.7394 80.7253C47.8199 81.8664 48.9071 82.9495 49.9997 83.9685C51.2424 85.1291 52.4904 86.209 53.7357 87.1984C61.8772 93.6631 69.1665 95.603 74.262 92.6611C79.3572 89.7191 81.3222 82.4366 79.7924 72.1546ZM65.8142 88.8779C63.0834 88.0461 59.8963 86.2196 56.5945 83.5989C55.4838 82.7156 54.3692 81.7565 53.2593 80.7241C52.168 79.7116 51.0802 78.6313 50.0002 77.4874C48.1423 75.5224 46.3061 73.3706 44.5135 71.0617C43.3166 69.5234 42.1402 67.9144 40.9928 66.2415C39.3232 63.8191 37.7135 61.2679 36.1819 58.615C34.6503 55.9621 33.2456 53.2925 31.9808 50.6365C31.1074 48.8054 30.3012 46.9804 29.5674 45.1747C28.4642 42.4678 27.5187 39.8017 26.746 37.2102C26.2953 35.703 25.9036 34.2207 25.5725 32.7694C25.2333 31.292 24.9601 29.8474 24.7504 28.4436C24.1318 24.274 24.1434 20.6005 24.7884 17.8196C25.3823 15.2522 26.4735 13.4934 28.0341 12.5924C29.5946 11.6914 31.6635 11.6257 34.1838 12.3952C36.9146 13.227 40.1017 15.0535 43.4035 17.6743C44.5142 18.5576 45.6288 19.5166 46.7387 20.5491C47.83 21.5615 48.9178 22.6418 49.9977 23.7858C51.8557 25.7507 53.6919 27.9026 55.4845 30.2115C56.6814 31.7498 57.8588 33.3605 59.0079 35.0324C60.6756 37.4558 62.2853 40.0071 63.8169 42.6599C65.3485 45.3128 66.7532 47.9824 68.0162 50.6395C68.8912 52.4696 69.6965 54.2929 70.4303 56.0986C71.5335 58.8056 72.479 61.4717 73.2517 64.0632C73.7024 65.5704 74.094 67.0527 74.4252 68.504C74.7644 69.9813 75.0376 71.426 75.2472 72.8297C75.8659 76.9993 75.8543 80.6729 75.2092 83.4537C74.6153 86.0212 73.5241 87.78 71.9636 88.6809C70.4032 89.5818 68.3345 89.6475 65.8142 88.8779Z" fill="#1CB5E0"/>
<path d="M53.7375 14.0762C52.4922 15.0659 51.2442 16.1458 49.9987 17.3071C48.9079 18.3268 47.819 19.409 46.7383 20.5503C43.9015 23.5454 41.1156 26.9422 38.4584 30.6466C37.2961 32.2637 36.1595 33.9428 35.0553 35.6713C34.0788 37.1955 33.1253 38.7611 32.2019 40.3605C31.2784 41.96 30.3991 43.5686 29.5666 45.1782C28.6206 47.0003 27.7367 48.8253 26.9155 50.6394C25.036 54.7928 23.4883 58.9021 22.3128 62.8565C21.8649 64.3628 21.4723 65.847 21.1343 67.3016C20.7495 68.9599 20.4402 70.5817 20.2057 72.1549C18.6771 82.435 20.6409 89.7195 25.7363 92.6613C30.8316 95.6031 38.122 93.6616 46.2625 87.1986C47.5078 86.2089 48.7546 85.1309 50.0002 83.9696C51.091 82.9499 52.1799 81.8677 53.2589 80.7254C56.0974 77.7312 58.8816 74.3335 61.5416 70.6283C62.702 69.0101 63.8388 67.331 64.9456 65.6018C65.9221 64.0776 66.8738 62.511 67.7972 60.9115C68.7206 59.3121 69.6006 57.7063 70.4323 56.0985C71.3765 54.2753 72.2612 52.4531 73.0834 50.6373C74.9628 46.4839 76.5126 42.371 77.6864 38.4157C78.1344 36.9093 78.5288 35.4262 78.8649 33.9705C79.2488 32.314 79.56 30.6933 79.7942 29.1201C81.322 18.837 79.3574 11.5544 74.2618 8.61249C69.1664 5.67086 61.8771 7.61045 53.7375 14.0762ZM75.2094 17.82C75.8545 20.6009 75.8662 24.2743 75.2474 28.444C75.0379 29.8476 74.7646 31.2924 74.4254 32.7698C74.0943 34.2211 73.7026 35.7034 73.2519 37.2106C72.4792 39.8021 71.5337 42.4682 70.4305 45.1752C69.6967 46.9809 68.8914 48.8041 68.0164 50.6342C66.7534 53.2913 65.3488 55.961 63.8171 58.6138C62.2855 61.2667 60.6758 63.818 59.0081 66.2414C57.859 67.9133 56.6816 69.524 55.4848 71.0623C53.6921 73.3712 51.8559 75.523 49.998 77.488C48.918 78.6319 47.8302 79.7122 46.7389 80.7247C45.629 81.7571 44.5145 82.716 43.4037 83.5995C40.102 86.22 36.9148 88.0467 34.184 88.8785C31.6636 89.648 29.5948 89.5823 28.0343 88.6814C26.4737 87.7804 25.3824 86.0215 24.7887 83.4541C24.1436 80.6733 24.1319 76.9999 24.7506 72.8301C24.9602 71.4266 25.2335 69.9817 25.5727 68.5044C25.9038 67.0531 26.2955 65.5708 26.7462 64.0636C27.5189 61.4721 28.4644 58.806 29.5676 56.099C30.3014 54.2933 31.1076 52.4684 31.981 50.6373C33.2458 47.9812 34.6505 45.3116 36.1821 42.6588C37.7138 40.0059 39.3234 37.4546 40.993 35.0323C42.1404 33.3594 43.3168 31.7504 44.5137 30.2121C46.3063 27.9032 48.1425 25.7513 50.0005 23.7864C51.0804 22.6424 52.1683 21.5621 53.2596 20.5497C54.3694 19.5173 55.4839 18.5583 56.5948 17.6749C59.8964 15.0543 63.0836 13.2276 65.8144 12.3958C68.3348 11.6264 70.4036 11.692 71.9641 12.593C73.5245 13.4939 74.6157 15.2527 75.2094 17.82Z" fill="#1CB5E0"/>
<path d="M49.9999 59.757C55.037 59.757 59.1203 55.6737 59.1203 50.6367C59.1203 45.5997 55.037 41.5164 49.9999 41.5164C44.9629 41.5164 40.8796 45.5997 40.8796 50.6367C40.8796 55.6737 44.9629 59.757 49.9999 59.757Z" fill="#1CB5E0"/>
</g>
<defs>
<clipPath id="clip0">
<rect width="100" height="100" fill="white"/>
</clipPath>
</defs>
</svg>
