<svg width="100" height="100" viewBox="0 0 100 100" fill="none" xmlns="http://www.w3.org/2000/svg">
<path d="M50 0C22.4375 0 0 22.4208 0 50C0 77.5625 22.4375 100 50 100C77.5625 100 100 77.5625 100 50C100 22.4167 77.5625 0 50 0ZM5.04167 49.9958C5.04167 43.4833 6.42917 37.2958 8.93333 31.7083L30.3833 90.4583C15.3792 83.1625 5.04167 67.7833 5.04167 49.9958ZM50 94.9583C45.5833 94.9583 41.3292 94.3125 37.3 93.1208L50.7875 53.9292L64.6 91.7917C64.7 92.0167 64.8042 92.2125 64.9208 92.4167C60.2625 94.05 55.2417 94.9583 50 94.9583ZM56.1875 28.9375V28.9333C58.8875 28.7917 61.325 28.5125 61.325 28.5125C63.7458 28.2292 63.4625 24.6625 61.0417 24.8C61.0417 24.8 53.7625 25.3625 49.0667 25.3625C44.65 25.3625 37.2292 24.8 37.2292 24.8C34.8125 24.6583 34.5333 28.3708 36.95 28.5125C36.95 28.5125 39.2458 28.7958 41.6667 28.9333L48.6625 48.125L38.825 77.6208L22.4583 28.9333C25.1625 28.7917 27.6 28.5125 27.6 28.5125C30.0208 28.2292 29.7375 24.6625 27.3167 24.8C27.3167 24.8 20.0375 25.3625 15.3417 25.3625C14.4958 25.3625 13.5042 25.3417 12.4375 25.3042C20.4833 13.1042 34.2917 5.04167 50 5.04167C61.6958 5.04167 72.3583 9.52083 80.3625 16.8333C80.1583 16.8125 79.9792 16.7958 79.7792 16.7958C75.3625 16.7958 72.2375 20.6458 72.2375 24.7792C72.2375 28.4875 74.375 31.6125 76.6542 35.325C78.3667 38.3083 80.3667 42.1583 80.3667 47.725C80.3667 51.575 78.8958 56.0292 76.9375 62.2625L72.4583 77.2417L56.1875 28.9375ZM89.4583 28.4292C92.9667 34.8417 94.9625 42.1792 94.9625 50.0042C94.9625 66.5958 85.9708 81.0708 72.6042 88.8542L72.6 88.85L86.3292 49.15C88.8875 42.7375 89.7583 37.6208 89.7583 33.0417C89.7583 31.3917 89.6583 29.8583 89.4583 28.4292V28.4292Z" fill="#1CB5E0"/>
</svg>
