<svg width="216" height="81" viewBox="0 0 216 81" fill="none" xmlns="http://www.w3.org/2000/svg">
<rect width="216" height="1" fill="white"/>
<path d="M1.56055 11.5005C1.56055 10.9814 1.9814 10.5605 2.50055 10.5605C3.01969 10.5605 3.44055 10.9814 3.44055 11.5005C3.44055 12.0197 3.01969 12.4405 2.50055 12.4405C1.9814 12.4405 1.56055 12.0197 1.56055 11.5005Z" fill="url(#paint0_linear)" fill-opacity="0.65"/>
<path d="M1.59595 22.536C1.59595 22.0169 2.0168 21.596 2.53595 21.596C3.05509 21.596 3.47595 22.0169 3.47595 22.536C3.47595 23.0552 3.05509 23.476 2.53595 23.476C2.0168 23.476 1.59595 23.0552 1.59595 22.536Z" fill="url(#paint1_linear)" fill-opacity="0.65"/>
<path d="M1.59595 33.536C1.59595 33.0169 2.0168 32.596 2.53595 32.596C3.05509 32.596 3.47595 33.0169 3.47595 33.536C3.47595 34.0552 3.05509 34.476 2.53595 34.476C2.0168 34.476 1.59595 34.0552 1.59595 33.536Z" fill="url(#paint2_linear)" fill-opacity="0.65"/>
<path d="M1.59595 43.536C1.59595 43.0169 2.0168 42.596 2.53595 42.596C3.05509 42.596 3.47595 43.0169 3.47595 43.536C3.47595 44.0552 3.05509 44.476 2.53595 44.476C2.0168 44.476 1.59595 44.0552 1.59595 43.536Z" fill="url(#paint3_linear)" fill-opacity="0.65"/>
<path d="M1.59595 53.536C1.59595 53.0169 2.0168 52.596 2.53595 52.596C3.05509 52.596 3.47595 53.0169 3.47595 53.536C3.47595 54.0552 3.05509 54.476 2.53595 54.476C2.0168 54.476 1.59595 54.0552 1.59595 53.536Z" fill="url(#paint4_linear)" fill-opacity="0.65"/>
<path d="M1.59595 62.536C1.59595 62.0169 2.0168 61.596 2.53595 61.596C3.05509 61.596 3.47595 62.0169 3.47595 62.536C3.47595 63.0552 3.05509 63.476 2.53595 63.476C2.0168 63.476 1.59595 63.0552 1.59595 62.536Z" fill="url(#paint5_linear)" fill-opacity="0.65"/>
<path d="M1.59595 70.536C1.59595 70.0169 2.0168 69.596 2.53595 69.596C3.05509 69.596 3.47595 70.0169 3.47595 70.536C3.47595 71.0552 3.05509 71.476 2.53595 71.476C2.0168 71.476 1.59595 71.0552 1.59595 70.536Z" fill="url(#paint6_linear)" fill-opacity="0.65"/>
<path d="M1.59595 78.536C1.59595 78.0169 2.0168 77.596 2.53595 77.596C3.05509 77.596 3.47595 78.0169 3.47595 78.536C3.47595 79.0552 3.05509 79.476 2.53595 79.476C2.0168 79.476 1.59595 79.0552 1.59595 78.536Z" fill="url(#paint7_linear)" fill-opacity="0.65"/>
<path d="M14.5959 11.536C14.5959 11.0169 15.0168 10.596 15.5359 10.596C16.0551 10.596 16.4759 11.0169 16.4759 11.536C16.4759 12.0552 16.0551 12.476 15.5359 12.476C15.0168 12.476 14.5959 12.0552 14.5959 11.536Z" fill="url(#paint8_linear)" fill-opacity="0.65"/>
<path d="M14.6313 22.5716C14.6313 22.0524 15.0522 21.6316 15.5713 21.6316C16.0905 21.6316 16.5113 22.0524 16.5113 22.5716C16.5113 23.0907 16.0905 23.5116 15.5713 23.5116C15.0522 23.5116 14.6313 23.0907 14.6313 22.5716Z" fill="url(#paint9_linear)" fill-opacity="0.65"/>
<path d="M14.6313 33.5716C14.6313 33.0524 15.0522 32.6316 15.5713 32.6316C16.0905 32.6316 16.5113 33.0524 16.5113 33.5716C16.5113 34.0907 16.0905 34.5116 15.5713 34.5116C15.0522 34.5116 14.6313 34.0907 14.6313 33.5716Z" fill="url(#paint10_linear)" fill-opacity="0.65"/>
<path d="M14.6313 43.5716C14.6313 43.0524 15.0522 42.6316 15.5713 42.6316C16.0905 42.6316 16.5113 43.0524 16.5113 43.5716C16.5113 44.0907 16.0905 44.5116 15.5713 44.5116C15.0522 44.5116 14.6313 44.0907 14.6313 43.5716Z" fill="url(#paint11_linear)" fill-opacity="0.65"/>
<path d="M14.6313 53.5716C14.6313 53.0524 15.0522 52.6316 15.5713 52.6316C16.0905 52.6316 16.5113 53.0524 16.5113 53.5716C16.5113 54.0907 16.0905 54.5116 15.5713 54.5116C15.0522 54.5116 14.6313 54.0907 14.6313 53.5716Z" fill="url(#paint12_linear)" fill-opacity="0.65"/>
<path d="M14.6313 62.5716C14.6313 62.0524 15.0522 61.6316 15.5713 61.6316C16.0905 61.6316 16.5113 62.0524 16.5113 62.5716C16.5113 63.0907 16.0905 63.5116 15.5713 63.5116C15.0522 63.5116 14.6313 63.0907 14.6313 62.5716Z" fill="url(#paint13_linear)" fill-opacity="0.65"/>
<path d="M14.6313 70.5716C14.6313 70.0524 15.0522 69.6316 15.5713 69.6316C16.0905 69.6316 16.5113 70.0524 16.5113 70.5716C16.5113 71.0907 16.0905 71.5116 15.5713 71.5116C15.0522 71.5116 14.6313 71.0907 14.6313 70.5716Z" fill="url(#paint14_linear)" fill-opacity="0.65"/>
<path d="M14.6313 78.5716C14.6313 78.0524 15.0522 77.6316 15.5713 77.6316C16.0905 77.6316 16.5113 78.0524 16.5113 78.5716C16.5113 79.0907 16.0905 79.5116 15.5713 79.5116C15.0522 79.5116 14.6313 79.0907 14.6313 78.5716Z" fill="url(#paint15_linear)" fill-opacity="0.65"/>
<path d="M27.6313 11.5716C27.6313 11.0524 28.0522 10.6316 28.5713 10.6316C29.0905 10.6316 29.5113 11.0524 29.5113 11.5716C29.5113 12.0907 29.0905 12.5116 28.5713 12.5116C28.0522 12.5116 27.6313 12.0907 27.6313 11.5716Z" fill="url(#paint16_linear)" fill-opacity="0.65"/>
<path d="M27.6667 22.6071C27.6667 22.0879 28.0876 21.6671 28.6067 21.6671C29.1259 21.6671 29.5467 22.0879 29.5467 22.6071C29.5467 23.1262 29.1259 23.5471 28.6067 23.5471C28.0876 23.5471 27.6667 23.1262 27.6667 22.6071Z" fill="url(#paint17_linear)" fill-opacity="0.65"/>
<path d="M27.6667 33.6071C27.6667 33.0879 28.0876 32.6671 28.6067 32.6671C29.1259 32.6671 29.5467 33.0879 29.5467 33.6071C29.5467 34.1262 29.1259 34.5471 28.6067 34.5471C28.0876 34.5471 27.6667 34.1262 27.6667 33.6071Z" fill="url(#paint18_linear)" fill-opacity="0.65"/>
<path d="M27.6667 43.6071C27.6667 43.0879 28.0876 42.6671 28.6067 42.6671C29.1259 42.6671 29.5467 43.0879 29.5467 43.6071C29.5467 44.1262 29.1259 44.5471 28.6067 44.5471C28.0876 44.5471 27.6667 44.1262 27.6667 43.6071Z" fill="url(#paint19_linear)" fill-opacity="0.65"/>
<path d="M27.6667 53.6071C27.6667 53.0879 28.0876 52.6671 28.6067 52.6671C29.1259 52.6671 29.5467 53.0879 29.5467 53.6071C29.5467 54.1262 29.1259 54.5471 28.6067 54.5471C28.0876 54.5471 27.6667 54.1262 27.6667 53.6071Z" fill="url(#paint20_linear)" fill-opacity="0.65"/>
<path d="M28.6667 62.6071C28.6667 62.0879 29.0876 61.6671 29.6067 61.6671C30.1259 61.6671 30.5467 62.0879 30.5467 62.6071C30.5467 63.1262 30.1259 63.5471 29.6067 63.5471C29.0876 63.5471 28.6667 63.1262 28.6667 62.6071Z" fill="url(#paint21_linear)" fill-opacity="0.65"/>
<path d="M27.6667 70.6071C27.6667 70.0879 28.0876 69.6671 28.6067 69.6671C29.1259 69.6671 29.5467 70.0879 29.5467 70.6071C29.5467 71.1262 29.1259 71.5471 28.6067 71.5471C28.0876 71.5471 27.6667 71.1262 27.6667 70.6071Z" fill="url(#paint22_linear)" fill-opacity="0.65"/>
<path d="M27.6667 78.6071C27.6667 78.0879 28.0876 77.6671 28.6067 77.6671C29.1259 77.6671 29.5467 78.0879 29.5467 78.6071C29.5467 79.1262 29.1259 79.5471 28.6067 79.5471C28.0876 79.5471 27.6667 79.1262 27.6667 78.6071Z" fill="url(#paint23_linear)" fill-opacity="0.65"/>
<path d="M40.6667 11.6071C40.6667 11.0879 41.0876 10.6671 41.6067 10.6671C42.1259 10.6671 42.5467 11.0879 42.5467 11.6071C42.5467 12.1262 42.1259 12.5471 41.6067 12.5471C41.0876 12.5471 40.6667 12.1262 40.6667 11.6071Z" fill="url(#paint24_linear)" fill-opacity="0.65"/>
<path d="M40.7021 22.6426C40.7021 22.1235 41.123 21.7026 41.6421 21.7026C42.1613 21.7026 42.5821 22.1235 42.5821 22.6426C42.5821 23.1618 42.1613 23.5826 41.6421 23.5826C41.123 23.5826 40.7021 23.1618 40.7021 22.6426Z" fill="url(#paint25_linear)" fill-opacity="0.65"/>
<path d="M40.7021 33.6426C40.7021 33.1235 41.123 32.7026 41.6421 32.7026C42.1613 32.7026 42.5821 33.1235 42.5821 33.6426C42.5821 34.1618 42.1613 34.5826 41.6421 34.5826C41.123 34.5826 40.7021 34.1618 40.7021 33.6426Z" fill="url(#paint26_linear)" fill-opacity="0.65"/>
<path d="M40.7021 43.6426C40.7021 43.1235 41.123 42.7026 41.6421 42.7026C42.1613 42.7026 42.5821 43.1235 42.5821 43.6426C42.5821 44.1618 42.1613 44.5826 41.6421 44.5826C41.123 44.5826 40.7021 44.1618 40.7021 43.6426Z" fill="url(#paint27_linear)" fill-opacity="0.65"/>
<path d="M40.7021 53.6426C40.7021 53.1235 41.123 52.7026 41.6421 52.7026C42.1613 52.7026 42.5821 53.1235 42.5821 53.6426C42.5821 54.1618 42.1613 54.5826 41.6421 54.5826C41.123 54.5826 40.7021 54.1618 40.7021 53.6426Z" fill="url(#paint28_linear)" fill-opacity="0.65"/>
<path d="M40.7021 62.6426C40.7021 62.1235 41.123 61.7026 41.6421 61.7026C42.1613 61.7026 42.5821 62.1235 42.5821 62.6426C42.5821 63.1618 42.1613 63.5826 41.6421 63.5826C41.123 63.5826 40.7021 63.1618 40.7021 62.6426Z" fill="url(#paint29_linear)" fill-opacity="0.65"/>
<path d="M40.7021 70.6426C40.7021 70.1235 41.123 69.7026 41.6421 69.7026C42.1613 69.7026 42.5821 70.1235 42.5821 70.6426C42.5821 71.1618 42.1613 71.5826 41.6421 71.5826C41.123 71.5826 40.7021 71.1618 40.7021 70.6426Z" fill="url(#paint30_linear)" fill-opacity="0.65"/>
<path d="M40.7021 78.6426C40.7021 78.1235 41.123 77.7026 41.6421 77.7026C42.1613 77.7026 42.5821 78.1235 42.5821 78.6426C42.5821 79.1618 42.1613 79.5826 41.6421 79.5826C41.123 79.5826 40.7021 79.1618 40.7021 78.6426Z" fill="url(#paint31_linear)" fill-opacity="0.65"/>
<path d="M53.7021 11.6426C53.7021 11.1235 54.123 10.7026 54.6421 10.7026C55.1613 10.7026 55.5821 11.1235 55.5821 11.6426C55.5821 12.1618 55.1613 12.5826 54.6421 12.5826C54.123 12.5826 53.7021 12.1618 53.7021 11.6426Z" fill="url(#paint32_linear)" fill-opacity="0.65"/>
<path d="M53.7375 22.6781C53.7375 22.159 54.1584 21.7381 54.6775 21.7381C55.1967 21.7381 55.6175 22.159 55.6175 22.6781C55.6175 23.1973 55.1967 23.6181 54.6775 23.6181C54.1584 23.6181 53.7375 23.1973 53.7375 22.6781Z" fill="url(#paint33_linear)" fill-opacity="0.65"/>
<path d="M53.7375 33.6781C53.7375 33.159 54.1584 32.7381 54.6775 32.7381C55.1967 32.7381 55.6175 33.159 55.6175 33.6781C55.6175 34.1973 55.1967 34.6181 54.6775 34.6181C54.1584 34.6181 53.7375 34.1973 53.7375 33.6781Z" fill="url(#paint34_linear)" fill-opacity="0.65"/>
<path d="M53.7375 43.6781C53.7375 43.159 54.1584 42.7381 54.6775 42.7381C55.1967 42.7381 55.6175 43.159 55.6175 43.6781C55.6175 44.1973 55.1967 44.6181 54.6775 44.6181C54.1584 44.6181 53.7375 44.1973 53.7375 43.6781Z" fill="url(#paint35_linear)" fill-opacity="0.65"/>
<path d="M53.7375 53.6781C53.7375 53.159 54.1584 52.7381 54.6775 52.7381C55.1967 52.7381 55.6175 53.159 55.6175 53.6781C55.6175 54.1973 55.1967 54.6181 54.6775 54.6181C54.1584 54.6181 53.7375 54.1973 53.7375 53.6781Z" fill="url(#paint36_linear)" fill-opacity="0.65"/>
<path d="M53.7375 62.6781C53.7375 62.159 54.1584 61.7381 54.6775 61.7381C55.1967 61.7381 55.6175 62.159 55.6175 62.6781C55.6175 63.1973 55.1967 63.6181 54.6775 63.6181C54.1584 63.6181 53.7375 63.1973 53.7375 62.6781Z" fill="url(#paint37_linear)" fill-opacity="0.65"/>
<path d="M53.7375 70.6781C53.7375 70.159 54.1584 69.7381 54.6775 69.7381C55.1967 69.7381 55.6175 70.159 55.6175 70.6781C55.6175 71.1973 55.1967 71.6181 54.6775 71.6181C54.1584 71.6181 53.7375 71.1973 53.7375 70.6781Z" fill="url(#paint38_linear)" fill-opacity="0.65"/>
<path d="M53.7375 78.6781C53.7375 78.159 54.1584 77.7381 54.6775 77.7381C55.1967 77.7381 55.6175 78.159 55.6175 78.6781C55.6175 79.1973 55.1967 79.6181 54.6775 79.6181C54.1584 79.6181 53.7375 79.1973 53.7375 78.6781Z" fill="url(#paint39_linear)" fill-opacity="0.65"/>
<path d="M66.7375 11.6781C66.7375 11.159 67.1584 10.7381 67.6776 10.7381C68.1967 10.7381 68.6175 11.159 68.6175 11.6781C68.6175 12.1973 68.1967 12.6181 67.6776 12.6181C67.1584 12.6181 66.7375 12.1973 66.7375 11.6781Z" fill="url(#paint40_linear)" fill-opacity="0.65"/>
<path d="M66.7729 22.7137C66.7729 22.1945 67.1938 21.7737 67.713 21.7737C68.2321 21.7737 68.6529 22.1945 68.6529 22.7137C68.6529 23.2328 68.2321 23.6537 67.713 23.6537C67.1938 23.6537 66.7729 23.2328 66.7729 22.7137Z" fill="url(#paint41_linear)" fill-opacity="0.65"/>
<path d="M66.7729 33.7137C66.7729 33.1945 67.1938 32.7737 67.713 32.7737C68.2321 32.7737 68.6529 33.1945 68.6529 33.7137C68.6529 34.2328 68.2321 34.6537 67.713 34.6537C67.1938 34.6537 66.7729 34.2328 66.7729 33.7137Z" fill="url(#paint42_linear)" fill-opacity="0.65"/>
<path d="M66.7729 43.7136C66.7729 43.1945 67.1938 42.7737 67.713 42.7737C68.2321 42.7737 68.6529 43.1945 68.6529 43.7136C68.6529 44.2328 68.2321 44.6537 67.713 44.6537C67.1938 44.6537 66.7729 44.2328 66.7729 43.7136Z" fill="url(#paint43_linear)" fill-opacity="0.65"/>
<path d="M66.7729 53.7136C66.7729 53.1945 67.1938 52.7737 67.713 52.7737C68.2321 52.7737 68.6529 53.1945 68.6529 53.7136C68.6529 54.2328 68.2321 54.6537 67.713 54.6537C67.1938 54.6537 66.7729 54.2328 66.7729 53.7136Z" fill="url(#paint44_linear)" fill-opacity="0.65"/>
<path d="M66.7729 62.7136C66.7729 62.1945 67.1938 61.7737 67.713 61.7737C68.2321 61.7737 68.6529 62.1945 68.6529 62.7136C68.6529 63.2328 68.2321 63.6537 67.713 63.6537C67.1938 63.6537 66.7729 63.2328 66.7729 62.7136Z" fill="url(#paint45_linear)" fill-opacity="0.65"/>
<path d="M66.7729 70.7136C66.7729 70.1945 67.1938 69.7737 67.713 69.7737C68.2321 69.7737 68.6529 70.1945 68.6529 70.7136C68.6529 71.2328 68.2321 71.6537 67.713 71.6537C67.1938 71.6537 66.7729 71.2328 66.7729 70.7136Z" fill="url(#paint46_linear)" fill-opacity="0.65"/>
<path d="M66.7729 78.7137C66.7729 78.1945 67.1938 77.7737 67.713 77.7737C68.2321 77.7737 68.6529 78.1945 68.6529 78.7137C68.6529 79.2328 68.2321 79.6536 67.713 79.6536C67.1938 79.6536 66.7729 79.2328 66.7729 78.7137Z" fill="url(#paint47_linear)" fill-opacity="0.65"/>
<path d="M79.7729 11.7137C79.7729 11.1945 80.1938 10.7737 80.713 10.7737C81.2321 10.7737 81.6529 11.1945 81.6529 11.7137C81.6529 12.2328 81.2321 12.6537 80.713 12.6537C80.1938 12.6537 79.7729 12.2328 79.7729 11.7137Z" fill="url(#paint48_linear)" fill-opacity="0.65"/>
<path d="M79.8083 22.7492C79.8083 22.23 80.2292 21.8092 80.7484 21.8092C81.2675 21.8092 81.6883 22.23 81.6883 22.7492C81.6883 23.2683 81.2675 23.6892 80.7484 23.6892C80.2292 23.6892 79.8083 23.2683 79.8083 22.7492Z" fill="url(#paint49_linear)" fill-opacity="0.65"/>
<path d="M79.8083 33.7492C79.8083 33.23 80.2292 32.8092 80.7484 32.8092C81.2675 32.8092 81.6883 33.23 81.6883 33.7492C81.6883 34.2683 81.2675 34.6892 80.7484 34.6892C80.2292 34.6892 79.8083 34.2683 79.8083 33.7492Z" fill="url(#paint50_linear)" fill-opacity="0.65"/>
<path d="M79.8083 43.7492C79.8083 43.23 80.2292 42.8092 80.7484 42.8092C81.2675 42.8092 81.6883 43.23 81.6883 43.7492C81.6883 44.2683 81.2675 44.6892 80.7484 44.6892C80.2292 44.6892 79.8083 44.2683 79.8083 43.7492Z" fill="url(#paint51_linear)" fill-opacity="0.65"/>
<path d="M79.8083 53.7492C79.8083 53.23 80.2292 52.8092 80.7484 52.8092C81.2675 52.8092 81.6883 53.23 81.6883 53.7492C81.6883 54.2683 81.2675 54.6892 80.7484 54.6892C80.2292 54.6892 79.8083 54.2683 79.8083 53.7492Z" fill="url(#paint52_linear)" fill-opacity="0.65"/>
<path d="M79.8083 62.7492C79.8083 62.23 80.2292 61.8092 80.7484 61.8092C81.2675 61.8092 81.6883 62.23 81.6883 62.7492C81.6883 63.2683 81.2675 63.6892 80.7484 63.6892C80.2292 63.6892 79.8083 63.2683 79.8083 62.7492Z" fill="url(#paint53_linear)" fill-opacity="0.65"/>
<path d="M79.8083 70.7492C79.8083 70.23 80.2292 69.8092 80.7484 69.8092C81.2675 69.8092 81.6883 70.23 81.6883 70.7492C81.6883 71.2683 81.2675 71.6892 80.7484 71.6892C80.2292 71.6892 79.8083 71.2683 79.8083 70.7492Z" fill="url(#paint54_linear)" fill-opacity="0.65"/>
<path d="M79.8083 78.7492C79.8083 78.23 80.2292 77.8092 80.7484 77.8092C81.2675 77.8092 81.6883 78.23 81.6883 78.7492C81.6883 79.2683 81.2675 79.6892 80.7484 79.6892C80.2292 79.6892 79.8083 79.2683 79.8083 78.7492Z" fill="url(#paint55_linear)" fill-opacity="0.65"/>
<path d="M92.8083 11.7492C92.8083 11.23 93.2292 10.8092 93.7484 10.8092C94.2675 10.8092 94.6883 11.23 94.6883 11.7492C94.6883 12.2683 94.2675 12.6892 93.7484 12.6892C93.2292 12.6892 92.8083 12.2683 92.8083 11.7492Z" fill="url(#paint56_linear)" fill-opacity="0.65"/>
<path d="M92.8438 22.7847C92.8438 22.2655 93.2646 21.8447 93.7838 21.8447C94.3029 21.8447 94.7237 22.2655 94.7237 22.7847C94.7237 23.3038 94.3029 23.7247 93.7838 23.7247C93.2646 23.7247 92.8438 23.3038 92.8438 22.7847Z" fill="url(#paint57_linear)" fill-opacity="0.65"/>
<path d="M92.8438 33.7847C92.8438 33.2655 93.2646 32.8447 93.7838 32.8447C94.3029 32.8447 94.7237 33.2655 94.7237 33.7847C94.7237 34.3038 94.3029 34.7247 93.7838 34.7247C93.2646 34.7247 92.8438 34.3038 92.8438 33.7847Z" fill="url(#paint58_linear)" fill-opacity="0.65"/>
<path d="M92.8438 43.7847C92.8438 43.2655 93.2646 42.8447 93.7838 42.8447C94.3029 42.8447 94.7237 43.2655 94.7237 43.7847C94.7237 44.3038 94.3029 44.7247 93.7838 44.7247C93.2646 44.7247 92.8438 44.3038 92.8438 43.7847Z" fill="url(#paint59_linear)" fill-opacity="0.65"/>
<path d="M92.8438 53.7847C92.8438 53.2655 93.2646 52.8447 93.7838 52.8447C94.3029 52.8447 94.7237 53.2655 94.7237 53.7847C94.7237 54.3038 94.3029 54.7247 93.7838 54.7247C93.2646 54.7247 92.8438 54.3038 92.8438 53.7847Z" fill="url(#paint60_linear)" fill-opacity="0.65"/>
<path d="M92.8438 62.7847C92.8438 62.2655 93.2646 61.8447 93.7838 61.8447C94.3029 61.8447 94.7237 62.2655 94.7237 62.7847C94.7237 63.3038 94.3029 63.7247 93.7838 63.7247C93.2646 63.7247 92.8438 63.3038 92.8438 62.7847Z" fill="url(#paint61_linear)" fill-opacity="0.65"/>
<path d="M92.8438 70.7847C92.8438 70.2655 93.2646 69.8447 93.7838 69.8447C94.3029 69.8447 94.7237 70.2655 94.7237 70.7847C94.7237 71.3038 94.3029 71.7247 93.7838 71.7247C93.2646 71.7247 92.8438 71.3038 92.8438 70.7847Z" fill="url(#paint62_linear)" fill-opacity="0.65"/>
<path d="M92.8438 78.7847C92.8438 78.2655 93.2646 77.8447 93.7838 77.8447C94.3029 77.8447 94.7237 78.2655 94.7237 78.7847C94.7237 79.3038 94.3029 79.7247 93.7838 79.7247C93.2646 79.7247 92.8438 79.3038 92.8438 78.7847Z" fill="url(#paint63_linear)" fill-opacity="0.65"/>
<path d="M105.844 11.7847C105.844 11.2655 106.265 10.8447 106.784 10.8447C107.303 10.8447 107.724 11.2655 107.724 11.7847C107.724 12.3038 107.303 12.7247 106.784 12.7247C106.265 12.7247 105.844 12.3038 105.844 11.7847Z" fill="url(#paint64_linear)" fill-opacity="0.65"/>
<path d="M105.879 22.8202C105.879 22.3011 106.3 21.8802 106.819 21.8802C107.338 21.8802 107.759 22.3011 107.759 22.8202C107.759 23.3394 107.338 23.7602 106.819 23.7602C106.3 23.7602 105.879 23.3394 105.879 22.8202Z" fill="url(#paint65_linear)" fill-opacity="0.65"/>
<path d="M105.879 33.8202C105.879 33.3011 106.3 32.8802 106.819 32.8802C107.338 32.8802 107.759 33.3011 107.759 33.8202C107.759 34.3394 107.338 34.7602 106.819 34.7602C106.3 34.7602 105.879 34.3394 105.879 33.8202Z" fill="url(#paint66_linear)" fill-opacity="0.65"/>
<path d="M105.879 43.8202C105.879 43.3011 106.3 42.8802 106.819 42.8802C107.338 42.8802 107.759 43.3011 107.759 43.8202C107.759 44.3394 107.338 44.7602 106.819 44.7602C106.3 44.7602 105.879 44.3394 105.879 43.8202Z" fill="url(#paint67_linear)" fill-opacity="0.65"/>
<path d="M105.879 53.8202C105.879 53.3011 106.3 52.8802 106.819 52.8802C107.338 52.8802 107.759 53.3011 107.759 53.8202C107.759 54.3394 107.338 54.7602 106.819 54.7602C106.3 54.7602 105.879 54.3394 105.879 53.8202Z" fill="url(#paint68_linear)" fill-opacity="0.65"/>
<path d="M105.879 62.8202C105.879 62.3011 106.3 61.8802 106.819 61.8802C107.338 61.8802 107.759 62.3011 107.759 62.8202C107.759 63.3394 107.338 63.7602 106.819 63.7602C106.3 63.7602 105.879 63.3394 105.879 62.8202Z" fill="url(#paint69_linear)" fill-opacity="0.65"/>
<path d="M105.879 70.8202C105.879 70.3011 106.3 69.8802 106.819 69.8802C107.338 69.8802 107.759 70.3011 107.759 70.8202C107.759 71.3394 107.338 71.7602 106.819 71.7602C106.3 71.7602 105.879 71.3394 105.879 70.8202Z" fill="url(#paint70_linear)" fill-opacity="0.65"/>
<path d="M105.879 78.8202C105.879 78.3011 106.3 77.8802 106.819 77.8802C107.338 77.8802 107.759 78.3011 107.759 78.8202C107.759 79.3394 107.338 79.7602 106.819 79.7602C106.3 79.7602 105.879 79.3394 105.879 78.8202Z" fill="url(#paint71_linear)" fill-opacity="0.65"/>
<path d="M118.879 11.8202C118.879 11.3011 119.3 10.8802 119.819 10.8802C120.338 10.8802 120.759 11.3011 120.759 11.8202C120.759 12.3394 120.338 12.7602 119.819 12.7602C119.3 12.7602 118.879 12.3394 118.879 11.8202Z" fill="url(#paint72_linear)" fill-opacity="0.65"/>
<path d="M118.915 22.8557C118.915 22.3366 119.335 21.9157 119.855 21.9157C120.374 21.9157 120.795 22.3366 120.795 22.8557C120.795 23.3749 120.374 23.7957 119.855 23.7957C119.335 23.7957 118.915 23.3749 118.915 22.8557Z" fill="url(#paint73_linear)" fill-opacity="0.65"/>
<path d="M118.915 33.8557C118.915 33.3366 119.335 32.9157 119.855 32.9157C120.374 32.9157 120.795 33.3366 120.795 33.8557C120.795 34.3749 120.374 34.7957 119.855 34.7957C119.335 34.7957 118.915 34.3749 118.915 33.8557Z" fill="url(#paint74_linear)" fill-opacity="0.65"/>
<path d="M118.915 43.8557C118.915 43.3366 119.335 42.9157 119.855 42.9157C120.374 42.9157 120.795 43.3366 120.795 43.8557C120.795 44.3749 120.374 44.7957 119.855 44.7957C119.335 44.7957 118.915 44.3749 118.915 43.8557Z" fill="url(#paint75_linear)" fill-opacity="0.65"/>
<path d="M118.915 53.8557C118.915 53.3366 119.335 52.9157 119.855 52.9157C120.374 52.9157 120.795 53.3366 120.795 53.8557C120.795 54.3749 120.374 54.7957 119.855 54.7957C119.335 54.7957 118.915 54.3749 118.915 53.8557Z" fill="url(#paint76_linear)" fill-opacity="0.65"/>
<path d="M118.915 62.8557C118.915 62.3366 119.335 61.9157 119.855 61.9157C120.374 61.9157 120.795 62.3366 120.795 62.8557C120.795 63.3749 120.374 63.7957 119.855 63.7957C119.335 63.7957 118.915 63.3749 118.915 62.8557Z" fill="url(#paint77_linear)" fill-opacity="0.65"/>
<path d="M118.915 70.8557C118.915 70.3366 119.335 69.9157 119.855 69.9157C120.374 69.9157 120.795 70.3366 120.795 70.8557C120.795 71.3749 120.374 71.7957 119.855 71.7957C119.335 71.7957 118.915 71.3749 118.915 70.8557Z" fill="url(#paint78_linear)" fill-opacity="0.65"/>
<path d="M118.915 78.8557C118.915 78.3366 119.335 77.9157 119.855 77.9157C120.374 77.9157 120.795 78.3366 120.795 78.8557C120.795 79.3749 120.374 79.7957 119.855 79.7957C119.335 79.7957 118.915 79.3749 118.915 78.8557Z" fill="url(#paint79_linear)" fill-opacity="0.65"/>
<path d="M131.915 11.8557C131.915 11.3366 132.335 10.9157 132.855 10.9157C133.374 10.9157 133.795 11.3366 133.795 11.8557C133.795 12.3749 133.374 12.7957 132.855 12.7957C132.335 12.7957 131.915 12.3749 131.915 11.8557Z" fill="url(#paint80_linear)" fill-opacity="0.65"/>
<path d="M131.95 22.8913C131.95 22.3721 132.371 21.9513 132.89 21.9513C133.409 21.9513 133.83 22.3721 133.83 22.8913C133.83 23.4104 133.409 23.8313 132.89 23.8313C132.371 23.8313 131.95 23.4104 131.95 22.8913Z" fill="url(#paint81_linear)" fill-opacity="0.65"/>
<path d="M131.95 33.8913C131.95 33.3721 132.371 32.9513 132.89 32.9513C133.409 32.9513 133.83 33.3721 133.83 33.8913C133.83 34.4104 133.409 34.8313 132.89 34.8313C132.371 34.8313 131.95 34.4104 131.95 33.8913Z" fill="url(#paint82_linear)" fill-opacity="0.65"/>
<path d="M131.95 43.8913C131.95 43.3721 132.371 42.9513 132.89 42.9513C133.409 42.9513 133.83 43.3721 133.83 43.8913C133.83 44.4104 133.409 44.8313 132.89 44.8313C132.371 44.8313 131.95 44.4104 131.95 43.8913Z" fill="url(#paint83_linear)" fill-opacity="0.65"/>
<path d="M131.95 53.8913C131.95 53.3721 132.371 52.9513 132.89 52.9513C133.409 52.9513 133.83 53.3721 133.83 53.8913C133.83 54.4104 133.409 54.8313 132.89 54.8313C132.371 54.8313 131.95 54.4104 131.95 53.8913Z" fill="url(#paint84_linear)" fill-opacity="0.65"/>
<path d="M131.95 62.8913C131.95 62.3721 132.371 61.9513 132.89 61.9513C133.409 61.9513 133.83 62.3721 133.83 62.8913C133.83 63.4104 133.409 63.8313 132.89 63.8313C132.371 63.8313 131.95 63.4104 131.95 62.8913Z" fill="url(#paint85_linear)" fill-opacity="0.65"/>
<path d="M131.95 70.8913C131.95 70.3721 132.371 69.9513 132.89 69.9513C133.409 69.9513 133.83 70.3721 133.83 70.8913C133.83 71.4104 133.409 71.8313 132.89 71.8313C132.371 71.8313 131.95 71.4104 131.95 70.8913Z" fill="url(#paint86_linear)" fill-opacity="0.65"/>
<path d="M131.95 78.8913C131.95 78.3721 132.371 77.9513 132.89 77.9513C133.409 77.9513 133.83 78.3721 133.83 78.8913C133.83 79.4104 133.409 79.8313 132.89 79.8313C132.371 79.8313 131.95 79.4104 131.95 78.8913Z" fill="url(#paint87_linear)" fill-opacity="0.65"/>
<path d="M144.95 11.8913C144.95 11.3721 145.371 10.9513 145.89 10.9513C146.409 10.9513 146.83 11.3721 146.83 11.8913C146.83 12.4104 146.409 12.8313 145.89 12.8313C145.371 12.8313 144.95 12.4104 144.95 11.8913Z" fill="url(#paint88_linear)" fill-opacity="0.65"/>
<path d="M144.985 22.9268C144.985 22.4076 145.406 21.9868 145.925 21.9868C146.445 21.9868 146.865 22.4076 146.865 22.9268C146.865 23.4459 146.445 23.8668 145.925 23.8668C145.406 23.8668 144.985 23.4459 144.985 22.9268Z" fill="url(#paint89_linear)" fill-opacity="0.65"/>
<path d="M144.985 33.9268C144.985 33.4076 145.406 32.9868 145.925 32.9868C146.445 32.9868 146.865 33.4076 146.865 33.9268C146.865 34.4459 146.445 34.8668 145.925 34.8668C145.406 34.8668 144.985 34.4459 144.985 33.9268Z" fill="url(#paint90_linear)" fill-opacity="0.65"/>
<path d="M144.985 43.9268C144.985 43.4076 145.406 42.9868 145.925 42.9868C146.445 42.9868 146.865 43.4076 146.865 43.9268C146.865 44.4459 146.445 44.8668 145.925 44.8668C145.406 44.8668 144.985 44.4459 144.985 43.9268Z" fill="url(#paint91_linear)" fill-opacity="0.65"/>
<path d="M144.985 53.9268C144.985 53.4076 145.406 52.9868 145.925 52.9868C146.445 52.9868 146.865 53.4076 146.865 53.9268C146.865 54.4459 146.445 54.8668 145.925 54.8668C145.406 54.8668 144.985 54.4459 144.985 53.9268Z" fill="url(#paint92_linear)" fill-opacity="0.65"/>
<path d="M144.985 62.9268C144.985 62.4076 145.406 61.9868 145.925 61.9868C146.445 61.9868 146.865 62.4076 146.865 62.9268C146.865 63.4459 146.445 63.8668 145.925 63.8668C145.406 63.8668 144.985 63.4459 144.985 62.9268Z" fill="url(#paint93_linear)" fill-opacity="0.65"/>
<path d="M144.985 70.9268C144.985 70.4076 145.406 69.9868 145.925 69.9868C146.445 69.9868 146.865 70.4076 146.865 70.9268C146.865 71.4459 146.445 71.8668 145.925 71.8668C145.406 71.8668 144.985 71.4459 144.985 70.9268Z" fill="url(#paint94_linear)" fill-opacity="0.65"/>
<path d="M144.985 78.9268C144.985 78.4076 145.406 77.9868 145.925 77.9868C146.445 77.9868 146.865 78.4076 146.865 78.9268C146.865 79.4459 146.445 79.8668 145.925 79.8668C145.406 79.8668 144.985 79.4459 144.985 78.9268Z" fill="url(#paint95_linear)" fill-opacity="0.65"/>
<path d="M157.985 11.9268C157.985 11.4076 158.406 10.9868 158.925 10.9868C159.445 10.9868 159.865 11.4076 159.865 11.9268C159.865 12.4459 159.445 12.8668 158.925 12.8668C158.406 12.8668 157.985 12.4459 157.985 11.9268Z" fill="url(#paint96_linear)" fill-opacity="0.65"/>
<path d="M158.021 22.9623C158.021 22.4432 158.442 22.0223 158.961 22.0223C159.48 22.0223 159.901 22.4432 159.901 22.9623C159.901 23.4815 159.48 23.9023 158.961 23.9023C158.442 23.9023 158.021 23.4815 158.021 22.9623Z" fill="url(#paint97_linear)" fill-opacity="0.65"/>
<path d="M158.021 33.9623C158.021 33.4432 158.442 33.0223 158.961 33.0223C159.48 33.0223 159.901 33.4432 159.901 33.9623C159.901 34.4815 159.48 34.9023 158.961 34.9023C158.442 34.9023 158.021 34.4815 158.021 33.9623Z" fill="url(#paint98_linear)" fill-opacity="0.65"/>
<path d="M158.021 43.9623C158.021 43.4432 158.442 43.0223 158.961 43.0223C159.48 43.0223 159.901 43.4432 159.901 43.9623C159.901 44.4815 159.48 44.9023 158.961 44.9023C158.442 44.9023 158.021 44.4815 158.021 43.9623Z" fill="url(#paint99_linear)" fill-opacity="0.65"/>
<path d="M158.021 53.9623C158.021 53.4432 158.442 53.0223 158.961 53.0223C159.48 53.0223 159.901 53.4432 159.901 53.9623C159.901 54.4815 159.48 54.9023 158.961 54.9023C158.442 54.9023 158.021 54.4815 158.021 53.9623Z" fill="url(#paint100_linear)" fill-opacity="0.65"/>
<path d="M158.021 62.9623C158.021 62.4432 158.442 62.0223 158.961 62.0223C159.48 62.0223 159.901 62.4432 159.901 62.9623C159.901 63.4815 159.48 63.9023 158.961 63.9023C158.442 63.9023 158.021 63.4815 158.021 62.9623Z" fill="url(#paint101_linear)" fill-opacity="0.65"/>
<path d="M158.021 70.9623C158.021 70.4432 158.442 70.0223 158.961 70.0223C159.48 70.0223 159.901 70.4432 159.901 70.9623C159.901 71.4815 159.48 71.9023 158.961 71.9023C158.442 71.9023 158.021 71.4815 158.021 70.9623Z" fill="url(#paint102_linear)" fill-opacity="0.65"/>
<path d="M158.021 78.9623C158.021 78.4432 158.442 78.0223 158.961 78.0223C159.48 78.0223 159.901 78.4432 159.901 78.9623C159.901 79.4815 159.48 79.9023 158.961 79.9023C158.442 79.9023 158.021 79.4815 158.021 78.9623Z" fill="url(#paint103_linear)" fill-opacity="0.65"/>
<path d="M171.021 11.9623C171.021 11.4432 171.442 11.0223 171.961 11.0223C172.48 11.0223 172.901 11.4432 172.901 11.9623C172.901 12.4815 172.48 12.9023 171.961 12.9023C171.442 12.9023 171.021 12.4815 171.021 11.9623Z" fill="url(#paint104_linear)" fill-opacity="0.65"/>
<path d="M171.056 22.9978C171.056 22.4787 171.477 22.0578 171.996 22.0578C172.515 22.0578 172.936 22.4787 172.936 22.9978C172.936 23.517 172.515 23.9378 171.996 23.9378C171.477 23.9378 171.056 23.517 171.056 22.9978Z" fill="url(#paint105_linear)" fill-opacity="0.65"/>
<path d="M171.056 33.9978C171.056 33.4787 171.477 33.0578 171.996 33.0578C172.515 33.0578 172.936 33.4787 172.936 33.9978C172.936 34.517 172.515 34.9378 171.996 34.9378C171.477 34.9378 171.056 34.517 171.056 33.9978Z" fill="url(#paint106_linear)" fill-opacity="0.65"/>
<path d="M171.056 43.9978C171.056 43.4787 171.477 43.0578 171.996 43.0578C172.515 43.0578 172.936 43.4787 172.936 43.9978C172.936 44.517 172.515 44.9378 171.996 44.9378C171.477 44.9378 171.056 44.517 171.056 43.9978Z" fill="url(#paint107_linear)" fill-opacity="0.65"/>
<path d="M171.056 53.9978C171.056 53.4787 171.477 53.0578 171.996 53.0578C172.515 53.0578 172.936 53.4787 172.936 53.9978C172.936 54.517 172.515 54.9378 171.996 54.9378C171.477 54.9378 171.056 54.517 171.056 53.9978Z" fill="url(#paint108_linear)" fill-opacity="0.65"/>
<path d="M171.056 62.9978C171.056 62.4787 171.477 62.0578 171.996 62.0578C172.515 62.0578 172.936 62.4787 172.936 62.9978C172.936 63.517 172.515 63.9378 171.996 63.9378C171.477 63.9378 171.056 63.517 171.056 62.9978Z" fill="url(#paint109_linear)" fill-opacity="0.65"/>
<path d="M171.056 70.9978C171.056 70.4787 171.477 70.0578 171.996 70.0578C172.515 70.0578 172.936 70.4787 172.936 70.9978C172.936 71.517 172.515 71.9378 171.996 71.9378C171.477 71.9378 171.056 71.517 171.056 70.9978Z" fill="url(#paint110_linear)" fill-opacity="0.65"/>
<path d="M171.056 78.9978C171.056 78.4787 171.477 78.0578 171.996 78.0578C172.515 78.0578 172.936 78.4787 172.936 78.9978C172.936 79.517 172.515 79.9378 171.996 79.9378C171.477 79.9378 171.056 79.517 171.056 78.9978Z" fill="url(#paint111_linear)" fill-opacity="0.65"/>
<path d="M184.056 11.9978C184.056 11.4787 184.477 11.0578 184.996 11.0578C185.515 11.0578 185.936 11.4787 185.936 11.9978C185.936 12.517 185.515 12.9378 184.996 12.9378C184.477 12.9378 184.056 12.517 184.056 11.9978Z" fill="url(#paint112_linear)" fill-opacity="0.65"/>
<path d="M184.092 23.0334C184.092 22.5142 184.512 22.0934 185.032 22.0934C185.551 22.0934 185.972 22.5142 185.972 23.0334C185.972 23.5525 185.551 23.9734 185.032 23.9734C184.512 23.9734 184.092 23.5525 184.092 23.0334Z" fill="url(#paint113_linear)" fill-opacity="0.65"/>
<path d="M184.092 34.0334C184.092 33.5142 184.512 33.0934 185.032 33.0934C185.551 33.0934 185.972 33.5142 185.972 34.0334C185.972 34.5525 185.551 34.9734 185.032 34.9734C184.512 34.9734 184.092 34.5525 184.092 34.0334Z" fill="url(#paint114_linear)" fill-opacity="0.65"/>
<path d="M184.092 44.0334C184.092 43.5142 184.512 43.0934 185.032 43.0934C185.551 43.0934 185.972 43.5142 185.972 44.0334C185.972 44.5525 185.551 44.9734 185.032 44.9734C184.512 44.9734 184.092 44.5525 184.092 44.0334Z" fill="url(#paint115_linear)" fill-opacity="0.65"/>
<path d="M184.092 54.0334C184.092 53.5142 184.512 53.0934 185.032 53.0934C185.551 53.0934 185.972 53.5142 185.972 54.0334C185.972 54.5525 185.551 54.9734 185.032 54.9734C184.512 54.9734 184.092 54.5525 184.092 54.0334Z" fill="url(#paint116_linear)" fill-opacity="0.65"/>
<path d="M184.092 63.0334C184.092 62.5142 184.512 62.0934 185.032 62.0934C185.551 62.0934 185.972 62.5142 185.972 63.0334C185.972 63.5525 185.551 63.9734 185.032 63.9734C184.512 63.9734 184.092 63.5525 184.092 63.0334Z" fill="url(#paint117_linear)" fill-opacity="0.65"/>
<path d="M184.092 71.0334C184.092 70.5142 184.512 70.0934 185.032 70.0934C185.551 70.0934 185.972 70.5142 185.972 71.0334C185.972 71.5525 185.551 71.9734 185.032 71.9734C184.512 71.9734 184.092 71.5525 184.092 71.0334Z" fill="url(#paint118_linear)" fill-opacity="0.65"/>
<path d="M184.092 79.0334C184.092 78.5142 184.512 78.0934 185.032 78.0934C185.551 78.0934 185.972 78.5142 185.972 79.0334C185.972 79.5525 185.551 79.9734 185.032 79.9734C184.512 79.9734 184.092 79.5525 184.092 79.0334Z" fill="url(#paint119_linear)" fill-opacity="0.65"/>
<path d="M197.092 12.0334C197.092 11.5142 197.512 11.0934 198.032 11.0934C198.551 11.0934 198.972 11.5142 198.972 12.0334C198.972 12.5525 198.551 12.9734 198.032 12.9734C197.512 12.9734 197.092 12.5525 197.092 12.0334Z" fill="url(#paint120_linear)" fill-opacity="0.65"/>
<path d="M197.127 23.0689C197.127 22.5497 197.548 22.1289 198.067 22.1289C198.586 22.1289 199.007 22.5497 199.007 23.0689C199.007 23.588 198.586 24.0089 198.067 24.0089C197.548 24.0089 197.127 23.588 197.127 23.0689Z" fill="url(#paint121_linear)" fill-opacity="0.65"/>
<path d="M197.127 34.0689C197.127 33.5497 197.548 33.1289 198.067 33.1289C198.586 33.1289 199.007 33.5497 199.007 34.0689C199.007 34.588 198.586 35.0089 198.067 35.0089C197.548 35.0089 197.127 34.588 197.127 34.0689Z" fill="url(#paint122_linear)" fill-opacity="0.65"/>
<path d="M197.127 44.0689C197.127 43.5497 197.548 43.1289 198.067 43.1289C198.586 43.1289 199.007 43.5497 199.007 44.0689C199.007 44.588 198.586 45.0089 198.067 45.0089C197.548 45.0089 197.127 44.588 197.127 44.0689Z" fill="url(#paint123_linear)" fill-opacity="0.65"/>
<path d="M197.127 54.0689C197.127 53.5497 197.548 53.1289 198.067 53.1289C198.586 53.1289 199.007 53.5497 199.007 54.0689C199.007 54.588 198.586 55.0089 198.067 55.0089C197.548 55.0089 197.127 54.588 197.127 54.0689Z" fill="url(#paint124_linear)" fill-opacity="0.65"/>
<path d="M197.127 63.0689C197.127 62.5497 197.548 62.1289 198.067 62.1289C198.586 62.1289 199.007 62.5497 199.007 63.0689C199.007 63.588 198.586 64.0089 198.067 64.0089C197.548 64.0089 197.127 63.588 197.127 63.0689Z" fill="url(#paint125_linear)" fill-opacity="0.65"/>
<path d="M197.127 71.0689C197.127 70.5497 197.548 70.1289 198.067 70.1289C198.586 70.1289 199.007 70.5497 199.007 71.0689C199.007 71.588 198.586 72.0089 198.067 72.0089C197.548 72.0089 197.127 71.588 197.127 71.0689Z" fill="url(#paint126_linear)" fill-opacity="0.65"/>
<path d="M197.127 79.0689C197.127 78.5497 197.548 78.1289 198.067 78.1289C198.586 78.1289 199.007 78.5497 199.007 79.0689C199.007 79.588 198.586 80.0089 198.067 80.0089C197.548 80.0089 197.127 79.588 197.127 79.0689Z" fill="url(#paint127_linear)" fill-opacity="0.65"/>
<path d="M210.127 12.0689C210.127 11.5497 210.548 11.1289 211.067 11.1289C211.586 11.1289 212.007 11.5497 212.007 12.0689C212.007 12.588 211.586 13.0089 211.067 13.0089C210.548 13.0089 210.127 12.588 210.127 12.0689Z" fill="url(#paint128_linear)" fill-opacity="0.65"/>
<path d="M210.162 23.1044C210.162 22.5852 210.583 22.1644 211.102 22.1644C211.622 22.1644 212.042 22.5852 212.042 23.1044C212.042 23.6235 211.622 24.0444 211.102 24.0444C210.583 24.0444 210.162 23.6235 210.162 23.1044Z" fill="url(#paint129_linear)" fill-opacity="0.65"/>
<path d="M210.162 34.1044C210.162 33.5853 210.583 33.1644 211.102 33.1644C211.622 33.1644 212.042 33.5853 212.042 34.1044C212.042 34.6235 211.622 35.0444 211.102 35.0444C210.583 35.0444 210.162 34.6235 210.162 34.1044Z" fill="url(#paint130_linear)" fill-opacity="0.65"/>
<path d="M210.162 44.1044C210.162 43.5853 210.583 43.1644 211.102 43.1644C211.622 43.1644 212.042 43.5853 212.042 44.1044C212.042 44.6235 211.622 45.0444 211.102 45.0444C210.583 45.0444 210.162 44.6235 210.162 44.1044Z" fill="url(#paint131_linear)" fill-opacity="0.65"/>
<path d="M210.162 54.1044C210.162 53.5853 210.583 53.1644 211.102 53.1644C211.622 53.1644 212.042 53.5853 212.042 54.1044C212.042 54.6235 211.622 55.0444 211.102 55.0444C210.583 55.0444 210.162 54.6235 210.162 54.1044Z" fill="url(#paint132_linear)" fill-opacity="0.65"/>
<path d="M210.162 63.1044C210.162 62.5853 210.583 62.1644 211.102 62.1644C211.622 62.1644 212.042 62.5853 212.042 63.1044C212.042 63.6235 211.622 64.0444 211.102 64.0444C210.583 64.0444 210.162 63.6235 210.162 63.1044Z" fill="url(#paint133_linear)" fill-opacity="0.65"/>
<path d="M210.162 71.1044C210.162 70.5853 210.583 70.1644 211.102 70.1644C211.622 70.1644 212.042 70.5853 212.042 71.1044C212.042 71.6235 211.622 72.0444 211.102 72.0444C210.583 72.0444 210.162 71.6235 210.162 71.1044Z" fill="url(#paint134_linear)" fill-opacity="0.65"/>
<path d="M210.162 79.1044C210.162 78.5853 210.583 78.1644 211.102 78.1644C211.622 78.1644 212.042 78.5853 212.042 79.1044C212.042 79.6236 211.622 80.0444 211.102 80.0444C210.583 80.0444 210.162 79.6236 210.162 79.1044Z" fill="url(#paint135_linear)" fill-opacity="0.65"/>
<defs>
<linearGradient id="paint0_linear" x1="106.801" y1="10.5605" x2="106.801" y2="80.0444" gradientUnits="userSpaceOnUse">
<stop stop-color="white"/>
<stop offset="1" stop-color="#282828" stop-opacity="0"/>
</linearGradient>
<linearGradient id="paint1_linear" x1="106.801" y1="10.5605" x2="106.801" y2="80.0444" gradientUnits="userSpaceOnUse">
<stop stop-color="white"/>
<stop offset="1" stop-color="#282828" stop-opacity="0"/>
</linearGradient>
<linearGradient id="paint2_linear" x1="106.801" y1="10.5605" x2="106.801" y2="80.0444" gradientUnits="userSpaceOnUse">
<stop stop-color="white"/>
<stop offset="1" stop-color="#282828" stop-opacity="0"/>
</linearGradient>
<linearGradient id="paint3_linear" x1="106.801" y1="10.5605" x2="106.801" y2="80.0444" gradientUnits="userSpaceOnUse">
<stop stop-color="white"/>
<stop offset="1" stop-color="#282828" stop-opacity="0"/>
</linearGradient>
<linearGradient id="paint4_linear" x1="106.801" y1="10.5605" x2="106.801" y2="80.0444" gradientUnits="userSpaceOnUse">
<stop stop-color="white"/>
<stop offset="1" stop-color="#282828" stop-opacity="0"/>
</linearGradient>
<linearGradient id="paint5_linear" x1="106.801" y1="10.5605" x2="106.801" y2="80.0444" gradientUnits="userSpaceOnUse">
<stop stop-color="white"/>
<stop offset="1" stop-color="#282828" stop-opacity="0"/>
</linearGradient>
<linearGradient id="paint6_linear" x1="106.801" y1="10.5605" x2="106.801" y2="80.0444" gradientUnits="userSpaceOnUse">
<stop stop-color="white"/>
<stop offset="1" stop-color="#282828" stop-opacity="0"/>
</linearGradient>
<linearGradient id="paint7_linear" x1="106.801" y1="10.5605" x2="106.801" y2="80.0444" gradientUnits="userSpaceOnUse">
<stop stop-color="white"/>
<stop offset="1" stop-color="#282828" stop-opacity="0"/>
</linearGradient>
<linearGradient id="paint8_linear" x1="106.801" y1="10.5605" x2="106.801" y2="80.0444" gradientUnits="userSpaceOnUse">
<stop stop-color="white"/>
<stop offset="1" stop-color="#282828" stop-opacity="0"/>
</linearGradient>
<linearGradient id="paint9_linear" x1="106.801" y1="10.5605" x2="106.801" y2="80.0444" gradientUnits="userSpaceOnUse">
<stop stop-color="white"/>
<stop offset="1" stop-color="#282828" stop-opacity="0"/>
</linearGradient>
<linearGradient id="paint10_linear" x1="106.801" y1="10.5605" x2="106.801" y2="80.0444" gradientUnits="userSpaceOnUse">
<stop stop-color="white"/>
<stop offset="1" stop-color="#282828" stop-opacity="0"/>
</linearGradient>
<linearGradient id="paint11_linear" x1="106.801" y1="10.5605" x2="106.801" y2="80.0444" gradientUnits="userSpaceOnUse">
<stop stop-color="white"/>
<stop offset="1" stop-color="#282828" stop-opacity="0"/>
</linearGradient>
<linearGradient id="paint12_linear" x1="106.801" y1="10.5605" x2="106.801" y2="80.0444" gradientUnits="userSpaceOnUse">
<stop stop-color="white"/>
<stop offset="1" stop-color="#282828" stop-opacity="0"/>
</linearGradient>
<linearGradient id="paint13_linear" x1="106.801" y1="10.5605" x2="106.801" y2="80.0444" gradientUnits="userSpaceOnUse">
<stop stop-color="white"/>
<stop offset="1" stop-color="#282828" stop-opacity="0"/>
</linearGradient>
<linearGradient id="paint14_linear" x1="106.801" y1="10.5605" x2="106.801" y2="80.0444" gradientUnits="userSpaceOnUse">
<stop stop-color="white"/>
<stop offset="1" stop-color="#282828" stop-opacity="0"/>
</linearGradient>
<linearGradient id="paint15_linear" x1="106.801" y1="10.5605" x2="106.801" y2="80.0444" gradientUnits="userSpaceOnUse">
<stop stop-color="white"/>
<stop offset="1" stop-color="#282828" stop-opacity="0"/>
</linearGradient>
<linearGradient id="paint16_linear" x1="106.801" y1="10.5605" x2="106.801" y2="80.0444" gradientUnits="userSpaceOnUse">
<stop stop-color="white"/>
<stop offset="1" stop-color="#282828" stop-opacity="0"/>
</linearGradient>
<linearGradient id="paint17_linear" x1="106.801" y1="10.5605" x2="106.801" y2="80.0444" gradientUnits="userSpaceOnUse">
<stop stop-color="white"/>
<stop offset="1" stop-color="#282828" stop-opacity="0"/>
</linearGradient>
<linearGradient id="paint18_linear" x1="106.801" y1="10.5605" x2="106.801" y2="80.0444" gradientUnits="userSpaceOnUse">
<stop stop-color="white"/>
<stop offset="1" stop-color="#282828" stop-opacity="0"/>
</linearGradient>
<linearGradient id="paint19_linear" x1="106.801" y1="10.5605" x2="106.801" y2="80.0444" gradientUnits="userSpaceOnUse">
<stop stop-color="white"/>
<stop offset="1" stop-color="#282828" stop-opacity="0"/>
</linearGradient>
<linearGradient id="paint20_linear" x1="106.801" y1="10.5605" x2="106.801" y2="80.0444" gradientUnits="userSpaceOnUse">
<stop stop-color="white"/>
<stop offset="1" stop-color="#282828" stop-opacity="0"/>
</linearGradient>
<linearGradient id="paint21_linear" x1="106.801" y1="10.5605" x2="106.801" y2="80.0444" gradientUnits="userSpaceOnUse">
<stop stop-color="white"/>
<stop offset="1" stop-color="#282828" stop-opacity="0"/>
</linearGradient>
<linearGradient id="paint22_linear" x1="106.801" y1="10.5605" x2="106.801" y2="80.0444" gradientUnits="userSpaceOnUse">
<stop stop-color="white"/>
<stop offset="1" stop-color="#282828" stop-opacity="0"/>
</linearGradient>
<linearGradient id="paint23_linear" x1="106.801" y1="10.5605" x2="106.801" y2="80.0444" gradientUnits="userSpaceOnUse">
<stop stop-color="white"/>
<stop offset="1" stop-color="#282828" stop-opacity="0"/>
</linearGradient>
<linearGradient id="paint24_linear" x1="106.801" y1="10.5605" x2="106.801" y2="80.0444" gradientUnits="userSpaceOnUse">
<stop stop-color="white"/>
<stop offset="1" stop-color="#282828" stop-opacity="0"/>
</linearGradient>
<linearGradient id="paint25_linear" x1="106.801" y1="10.5605" x2="106.801" y2="80.0444" gradientUnits="userSpaceOnUse">
<stop stop-color="white"/>
<stop offset="1" stop-color="#282828" stop-opacity="0"/>
</linearGradient>
<linearGradient id="paint26_linear" x1="106.801" y1="10.5605" x2="106.801" y2="80.0444" gradientUnits="userSpaceOnUse">
<stop stop-color="white"/>
<stop offset="1" stop-color="#282828" stop-opacity="0"/>
</linearGradient>
<linearGradient id="paint27_linear" x1="106.801" y1="10.5605" x2="106.801" y2="80.0444" gradientUnits="userSpaceOnUse">
<stop stop-color="white"/>
<stop offset="1" stop-color="#282828" stop-opacity="0"/>
</linearGradient>
<linearGradient id="paint28_linear" x1="106.801" y1="10.5605" x2="106.801" y2="80.0444" gradientUnits="userSpaceOnUse">
<stop stop-color="white"/>
<stop offset="1" stop-color="#282828" stop-opacity="0"/>
</linearGradient>
<linearGradient id="paint29_linear" x1="106.801" y1="10.5605" x2="106.801" y2="80.0444" gradientUnits="userSpaceOnUse">
<stop stop-color="white"/>
<stop offset="1" stop-color="#282828" stop-opacity="0"/>
</linearGradient>
<linearGradient id="paint30_linear" x1="106.801" y1="10.5605" x2="106.801" y2="80.0444" gradientUnits="userSpaceOnUse">
<stop stop-color="white"/>
<stop offset="1" stop-color="#282828" stop-opacity="0"/>
</linearGradient>
<linearGradient id="paint31_linear" x1="106.801" y1="10.5605" x2="106.801" y2="80.0444" gradientUnits="userSpaceOnUse">
<stop stop-color="white"/>
<stop offset="1" stop-color="#282828" stop-opacity="0"/>
</linearGradient>
<linearGradient id="paint32_linear" x1="106.801" y1="10.5605" x2="106.801" y2="80.0444" gradientUnits="userSpaceOnUse">
<stop stop-color="white"/>
<stop offset="1" stop-color="#282828" stop-opacity="0"/>
</linearGradient>
<linearGradient id="paint33_linear" x1="106.801" y1="10.5605" x2="106.801" y2="80.0444" gradientUnits="userSpaceOnUse">
<stop stop-color="white"/>
<stop offset="1" stop-color="#282828" stop-opacity="0"/>
</linearGradient>
<linearGradient id="paint34_linear" x1="106.801" y1="10.5605" x2="106.801" y2="80.0444" gradientUnits="userSpaceOnUse">
<stop stop-color="white"/>
<stop offset="1" stop-color="#282828" stop-opacity="0"/>
</linearGradient>
<linearGradient id="paint35_linear" x1="106.801" y1="10.5605" x2="106.801" y2="80.0444" gradientUnits="userSpaceOnUse">
<stop stop-color="white"/>
<stop offset="1" stop-color="#282828" stop-opacity="0"/>
</linearGradient>
<linearGradient id="paint36_linear" x1="106.801" y1="10.5605" x2="106.801" y2="80.0444" gradientUnits="userSpaceOnUse">
<stop stop-color="white"/>
<stop offset="1" stop-color="#282828" stop-opacity="0"/>
</linearGradient>
<linearGradient id="paint37_linear" x1="106.801" y1="10.5605" x2="106.801" y2="80.0444" gradientUnits="userSpaceOnUse">
<stop stop-color="white"/>
<stop offset="1" stop-color="#282828" stop-opacity="0"/>
</linearGradient>
<linearGradient id="paint38_linear" x1="106.801" y1="10.5605" x2="106.801" y2="80.0444" gradientUnits="userSpaceOnUse">
<stop stop-color="white"/>
<stop offset="1" stop-color="#282828" stop-opacity="0"/>
</linearGradient>
<linearGradient id="paint39_linear" x1="106.801" y1="10.5605" x2="106.801" y2="80.0444" gradientUnits="userSpaceOnUse">
<stop stop-color="white"/>
<stop offset="1" stop-color="#282828" stop-opacity="0"/>
</linearGradient>
<linearGradient id="paint40_linear" x1="106.801" y1="10.5605" x2="106.801" y2="80.0444" gradientUnits="userSpaceOnUse">
<stop stop-color="white"/>
<stop offset="1" stop-color="#282828" stop-opacity="0"/>
</linearGradient>
<linearGradient id="paint41_linear" x1="106.801" y1="10.5605" x2="106.801" y2="80.0444" gradientUnits="userSpaceOnUse">
<stop stop-color="white"/>
<stop offset="1" stop-color="#282828" stop-opacity="0"/>
</linearGradient>
<linearGradient id="paint42_linear" x1="106.801" y1="10.5605" x2="106.801" y2="80.0444" gradientUnits="userSpaceOnUse">
<stop stop-color="white"/>
<stop offset="1" stop-color="#282828" stop-opacity="0"/>
</linearGradient>
<linearGradient id="paint43_linear" x1="106.801" y1="10.5605" x2="106.801" y2="80.0444" gradientUnits="userSpaceOnUse">
<stop stop-color="white"/>
<stop offset="1" stop-color="#282828" stop-opacity="0"/>
</linearGradient>
<linearGradient id="paint44_linear" x1="106.801" y1="10.5605" x2="106.801" y2="80.0444" gradientUnits="userSpaceOnUse">
<stop stop-color="white"/>
<stop offset="1" stop-color="#282828" stop-opacity="0"/>
</linearGradient>
<linearGradient id="paint45_linear" x1="106.801" y1="10.5605" x2="106.801" y2="80.0444" gradientUnits="userSpaceOnUse">
<stop stop-color="white"/>
<stop offset="1" stop-color="#282828" stop-opacity="0"/>
</linearGradient>
<linearGradient id="paint46_linear" x1="106.801" y1="10.5605" x2="106.801" y2="80.0444" gradientUnits="userSpaceOnUse">
<stop stop-color="white"/>
<stop offset="1" stop-color="#282828" stop-opacity="0"/>
</linearGradient>
<linearGradient id="paint47_linear" x1="106.801" y1="10.5605" x2="106.801" y2="80.0444" gradientUnits="userSpaceOnUse">
<stop stop-color="white"/>
<stop offset="1" stop-color="#282828" stop-opacity="0"/>
</linearGradient>
<linearGradient id="paint48_linear" x1="106.801" y1="10.5605" x2="106.801" y2="80.0444" gradientUnits="userSpaceOnUse">
<stop stop-color="white"/>
<stop offset="1" stop-color="#282828" stop-opacity="0"/>
</linearGradient>
<linearGradient id="paint49_linear" x1="106.801" y1="10.5605" x2="106.801" y2="80.0444" gradientUnits="userSpaceOnUse">
<stop stop-color="white"/>
<stop offset="1" stop-color="#282828" stop-opacity="0"/>
</linearGradient>
<linearGradient id="paint50_linear" x1="106.801" y1="10.5605" x2="106.801" y2="80.0444" gradientUnits="userSpaceOnUse">
<stop stop-color="white"/>
<stop offset="1" stop-color="#282828" stop-opacity="0"/>
</linearGradient>
<linearGradient id="paint51_linear" x1="106.801" y1="10.5605" x2="106.801" y2="80.0444" gradientUnits="userSpaceOnUse">
<stop stop-color="white"/>
<stop offset="1" stop-color="#282828" stop-opacity="0"/>
</linearGradient>
<linearGradient id="paint52_linear" x1="106.801" y1="10.5605" x2="106.801" y2="80.0444" gradientUnits="userSpaceOnUse">
<stop stop-color="white"/>
<stop offset="1" stop-color="#282828" stop-opacity="0"/>
</linearGradient>
<linearGradient id="paint53_linear" x1="106.801" y1="10.5605" x2="106.801" y2="80.0444" gradientUnits="userSpaceOnUse">
<stop stop-color="white"/>
<stop offset="1" stop-color="#282828" stop-opacity="0"/>
</linearGradient>
<linearGradient id="paint54_linear" x1="106.801" y1="10.5605" x2="106.801" y2="80.0444" gradientUnits="userSpaceOnUse">
<stop stop-color="white"/>
<stop offset="1" stop-color="#282828" stop-opacity="0"/>
</linearGradient>
<linearGradient id="paint55_linear" x1="106.801" y1="10.5605" x2="106.801" y2="80.0444" gradientUnits="userSpaceOnUse">
<stop stop-color="white"/>
<stop offset="1" stop-color="#282828" stop-opacity="0"/>
</linearGradient>
<linearGradient id="paint56_linear" x1="106.801" y1="10.5605" x2="106.801" y2="80.0444" gradientUnits="userSpaceOnUse">
<stop stop-color="white"/>
<stop offset="1" stop-color="#282828" stop-opacity="0"/>
</linearGradient>
<linearGradient id="paint57_linear" x1="106.801" y1="10.5605" x2="106.801" y2="80.0444" gradientUnits="userSpaceOnUse">
<stop stop-color="white"/>
<stop offset="1" stop-color="#282828" stop-opacity="0"/>
</linearGradient>
<linearGradient id="paint58_linear" x1="106.801" y1="10.5605" x2="106.801" y2="80.0444" gradientUnits="userSpaceOnUse">
<stop stop-color="white"/>
<stop offset="1" stop-color="#282828" stop-opacity="0"/>
</linearGradient>
<linearGradient id="paint59_linear" x1="106.801" y1="10.5605" x2="106.801" y2="80.0444" gradientUnits="userSpaceOnUse">
<stop stop-color="white"/>
<stop offset="1" stop-color="#282828" stop-opacity="0"/>
</linearGradient>
<linearGradient id="paint60_linear" x1="106.801" y1="10.5605" x2="106.801" y2="80.0444" gradientUnits="userSpaceOnUse">
<stop stop-color="white"/>
<stop offset="1" stop-color="#282828" stop-opacity="0"/>
</linearGradient>
<linearGradient id="paint61_linear" x1="106.801" y1="10.5605" x2="106.801" y2="80.0444" gradientUnits="userSpaceOnUse">
<stop stop-color="white"/>
<stop offset="1" stop-color="#282828" stop-opacity="0"/>
</linearGradient>
<linearGradient id="paint62_linear" x1="106.801" y1="10.5605" x2="106.801" y2="80.0444" gradientUnits="userSpaceOnUse">
<stop stop-color="white"/>
<stop offset="1" stop-color="#282828" stop-opacity="0"/>
</linearGradient>
<linearGradient id="paint63_linear" x1="106.801" y1="10.5605" x2="106.801" y2="80.0444" gradientUnits="userSpaceOnUse">
<stop stop-color="white"/>
<stop offset="1" stop-color="#282828" stop-opacity="0"/>
</linearGradient>
<linearGradient id="paint64_linear" x1="106.801" y1="10.5605" x2="106.801" y2="80.0444" gradientUnits="userSpaceOnUse">
<stop stop-color="white"/>
<stop offset="1" stop-color="#282828" stop-opacity="0"/>
</linearGradient>
<linearGradient id="paint65_linear" x1="106.801" y1="10.5605" x2="106.801" y2="80.0444" gradientUnits="userSpaceOnUse">
<stop stop-color="white"/>
<stop offset="1" stop-color="#282828" stop-opacity="0"/>
</linearGradient>
<linearGradient id="paint66_linear" x1="106.801" y1="10.5605" x2="106.801" y2="80.0444" gradientUnits="userSpaceOnUse">
<stop stop-color="white"/>
<stop offset="1" stop-color="#282828" stop-opacity="0"/>
</linearGradient>
<linearGradient id="paint67_linear" x1="106.801" y1="10.5605" x2="106.801" y2="80.0444" gradientUnits="userSpaceOnUse">
<stop stop-color="white"/>
<stop offset="1" stop-color="#282828" stop-opacity="0"/>
</linearGradient>
<linearGradient id="paint68_linear" x1="106.801" y1="10.5605" x2="106.801" y2="80.0444" gradientUnits="userSpaceOnUse">
<stop stop-color="white"/>
<stop offset="1" stop-color="#282828" stop-opacity="0"/>
</linearGradient>
<linearGradient id="paint69_linear" x1="106.801" y1="10.5605" x2="106.801" y2="80.0444" gradientUnits="userSpaceOnUse">
<stop stop-color="white"/>
<stop offset="1" stop-color="#282828" stop-opacity="0"/>
</linearGradient>
<linearGradient id="paint70_linear" x1="106.801" y1="10.5605" x2="106.801" y2="80.0444" gradientUnits="userSpaceOnUse">
<stop stop-color="white"/>
<stop offset="1" stop-color="#282828" stop-opacity="0"/>
</linearGradient>
<linearGradient id="paint71_linear" x1="106.801" y1="10.5605" x2="106.801" y2="80.0444" gradientUnits="userSpaceOnUse">
<stop stop-color="white"/>
<stop offset="1" stop-color="#282828" stop-opacity="0"/>
</linearGradient>
<linearGradient id="paint72_linear" x1="106.801" y1="10.5605" x2="106.801" y2="80.0444" gradientUnits="userSpaceOnUse">
<stop stop-color="white"/>
<stop offset="1" stop-color="#282828" stop-opacity="0"/>
</linearGradient>
<linearGradient id="paint73_linear" x1="106.801" y1="10.5605" x2="106.801" y2="80.0444" gradientUnits="userSpaceOnUse">
<stop stop-color="white"/>
<stop offset="1" stop-color="#282828" stop-opacity="0"/>
</linearGradient>
<linearGradient id="paint74_linear" x1="106.801" y1="10.5605" x2="106.801" y2="80.0444" gradientUnits="userSpaceOnUse">
<stop stop-color="white"/>
<stop offset="1" stop-color="#282828" stop-opacity="0"/>
</linearGradient>
<linearGradient id="paint75_linear" x1="106.801" y1="10.5605" x2="106.801" y2="80.0444" gradientUnits="userSpaceOnUse">
<stop stop-color="white"/>
<stop offset="1" stop-color="#282828" stop-opacity="0"/>
</linearGradient>
<linearGradient id="paint76_linear" x1="106.801" y1="10.5605" x2="106.801" y2="80.0444" gradientUnits="userSpaceOnUse">
<stop stop-color="white"/>
<stop offset="1" stop-color="#282828" stop-opacity="0"/>
</linearGradient>
<linearGradient id="paint77_linear" x1="106.801" y1="10.5605" x2="106.801" y2="80.0444" gradientUnits="userSpaceOnUse">
<stop stop-color="white"/>
<stop offset="1" stop-color="#282828" stop-opacity="0"/>
</linearGradient>
<linearGradient id="paint78_linear" x1="106.801" y1="10.5605" x2="106.801" y2="80.0444" gradientUnits="userSpaceOnUse">
<stop stop-color="white"/>
<stop offset="1" stop-color="#282828" stop-opacity="0"/>
</linearGradient>
<linearGradient id="paint79_linear" x1="106.801" y1="10.5605" x2="106.801" y2="80.0444" gradientUnits="userSpaceOnUse">
<stop stop-color="white"/>
<stop offset="1" stop-color="#282828" stop-opacity="0"/>
</linearGradient>
<linearGradient id="paint80_linear" x1="106.801" y1="10.5605" x2="106.801" y2="80.0444" gradientUnits="userSpaceOnUse">
<stop stop-color="white"/>
<stop offset="1" stop-color="#282828" stop-opacity="0"/>
</linearGradient>
<linearGradient id="paint81_linear" x1="106.801" y1="10.5605" x2="106.801" y2="80.0444" gradientUnits="userSpaceOnUse">
<stop stop-color="white"/>
<stop offset="1" stop-color="#282828" stop-opacity="0"/>
</linearGradient>
<linearGradient id="paint82_linear" x1="106.801" y1="10.5605" x2="106.801" y2="80.0444" gradientUnits="userSpaceOnUse">
<stop stop-color="white"/>
<stop offset="1" stop-color="#282828" stop-opacity="0"/>
</linearGradient>
<linearGradient id="paint83_linear" x1="106.801" y1="10.5605" x2="106.801" y2="80.0444" gradientUnits="userSpaceOnUse">
<stop stop-color="white"/>
<stop offset="1" stop-color="#282828" stop-opacity="0"/>
</linearGradient>
<linearGradient id="paint84_linear" x1="106.801" y1="10.5605" x2="106.801" y2="80.0444" gradientUnits="userSpaceOnUse">
<stop stop-color="white"/>
<stop offset="1" stop-color="#282828" stop-opacity="0"/>
</linearGradient>
<linearGradient id="paint85_linear" x1="106.801" y1="10.5605" x2="106.801" y2="80.0444" gradientUnits="userSpaceOnUse">
<stop stop-color="white"/>
<stop offset="1" stop-color="#282828" stop-opacity="0"/>
</linearGradient>
<linearGradient id="paint86_linear" x1="106.801" y1="10.5605" x2="106.801" y2="80.0444" gradientUnits="userSpaceOnUse">
<stop stop-color="white"/>
<stop offset="1" stop-color="#282828" stop-opacity="0"/>
</linearGradient>
<linearGradient id="paint87_linear" x1="106.801" y1="10.5605" x2="106.801" y2="80.0444" gradientUnits="userSpaceOnUse">
<stop stop-color="white"/>
<stop offset="1" stop-color="#282828" stop-opacity="0"/>
</linearGradient>
<linearGradient id="paint88_linear" x1="106.801" y1="10.5605" x2="106.801" y2="80.0444" gradientUnits="userSpaceOnUse">
<stop stop-color="white"/>
<stop offset="1" stop-color="#282828" stop-opacity="0"/>
</linearGradient>
<linearGradient id="paint89_linear" x1="106.801" y1="10.5605" x2="106.801" y2="80.0444" gradientUnits="userSpaceOnUse">
<stop stop-color="white"/>
<stop offset="1" stop-color="#282828" stop-opacity="0"/>
</linearGradient>
<linearGradient id="paint90_linear" x1="106.801" y1="10.5605" x2="106.801" y2="80.0444" gradientUnits="userSpaceOnUse">
<stop stop-color="white"/>
<stop offset="1" stop-color="#282828" stop-opacity="0"/>
</linearGradient>
<linearGradient id="paint91_linear" x1="106.801" y1="10.5605" x2="106.801" y2="80.0444" gradientUnits="userSpaceOnUse">
<stop stop-color="white"/>
<stop offset="1" stop-color="#282828" stop-opacity="0"/>
</linearGradient>
<linearGradient id="paint92_linear" x1="106.801" y1="10.5605" x2="106.801" y2="80.0444" gradientUnits="userSpaceOnUse">
<stop stop-color="white"/>
<stop offset="1" stop-color="#282828" stop-opacity="0"/>
</linearGradient>
<linearGradient id="paint93_linear" x1="106.801" y1="10.5605" x2="106.801" y2="80.0444" gradientUnits="userSpaceOnUse">
<stop stop-color="white"/>
<stop offset="1" stop-color="#282828" stop-opacity="0"/>
</linearGradient>
<linearGradient id="paint94_linear" x1="106.801" y1="10.5605" x2="106.801" y2="80.0444" gradientUnits="userSpaceOnUse">
<stop stop-color="white"/>
<stop offset="1" stop-color="#282828" stop-opacity="0"/>
</linearGradient>
<linearGradient id="paint95_linear" x1="106.801" y1="10.5605" x2="106.801" y2="80.0444" gradientUnits="userSpaceOnUse">
<stop stop-color="white"/>
<stop offset="1" stop-color="#282828" stop-opacity="0"/>
</linearGradient>
<linearGradient id="paint96_linear" x1="106.801" y1="10.5605" x2="106.801" y2="80.0444" gradientUnits="userSpaceOnUse">
<stop stop-color="white"/>
<stop offset="1" stop-color="#282828" stop-opacity="0"/>
</linearGradient>
<linearGradient id="paint97_linear" x1="106.801" y1="10.5605" x2="106.801" y2="80.0444" gradientUnits="userSpaceOnUse">
<stop stop-color="white"/>
<stop offset="1" stop-color="#282828" stop-opacity="0"/>
</linearGradient>
<linearGradient id="paint98_linear" x1="106.801" y1="10.5605" x2="106.801" y2="80.0444" gradientUnits="userSpaceOnUse">
<stop stop-color="white"/>
<stop offset="1" stop-color="#282828" stop-opacity="0"/>
</linearGradient>
<linearGradient id="paint99_linear" x1="106.801" y1="10.5605" x2="106.801" y2="80.0444" gradientUnits="userSpaceOnUse">
<stop stop-color="white"/>
<stop offset="1" stop-color="#282828" stop-opacity="0"/>
</linearGradient>
<linearGradient id="paint100_linear" x1="106.801" y1="10.5605" x2="106.801" y2="80.0444" gradientUnits="userSpaceOnUse">
<stop stop-color="white"/>
<stop offset="1" stop-color="#282828" stop-opacity="0"/>
</linearGradient>
<linearGradient id="paint101_linear" x1="106.801" y1="10.5605" x2="106.801" y2="80.0444" gradientUnits="userSpaceOnUse">
<stop stop-color="white"/>
<stop offset="1" stop-color="#282828" stop-opacity="0"/>
</linearGradient>
<linearGradient id="paint102_linear" x1="106.801" y1="10.5605" x2="106.801" y2="80.0444" gradientUnits="userSpaceOnUse">
<stop stop-color="white"/>
<stop offset="1" stop-color="#282828" stop-opacity="0"/>
</linearGradient>
<linearGradient id="paint103_linear" x1="106.801" y1="10.5605" x2="106.801" y2="80.0444" gradientUnits="userSpaceOnUse">
<stop stop-color="white"/>
<stop offset="1" stop-color="#282828" stop-opacity="0"/>
</linearGradient>
<linearGradient id="paint104_linear" x1="106.801" y1="10.5605" x2="106.801" y2="80.0444" gradientUnits="userSpaceOnUse">
<stop stop-color="white"/>
<stop offset="1" stop-color="#282828" stop-opacity="0"/>
</linearGradient>
<linearGradient id="paint105_linear" x1="106.801" y1="10.5605" x2="106.801" y2="80.0444" gradientUnits="userSpaceOnUse">
<stop stop-color="white"/>
<stop offset="1" stop-color="#282828" stop-opacity="0"/>
</linearGradient>
<linearGradient id="paint106_linear" x1="106.801" y1="10.5605" x2="106.801" y2="80.0444" gradientUnits="userSpaceOnUse">
<stop stop-color="white"/>
<stop offset="1" stop-color="#282828" stop-opacity="0"/>
</linearGradient>
<linearGradient id="paint107_linear" x1="106.801" y1="10.5605" x2="106.801" y2="80.0444" gradientUnits="userSpaceOnUse">
<stop stop-color="white"/>
<stop offset="1" stop-color="#282828" stop-opacity="0"/>
</linearGradient>
<linearGradient id="paint108_linear" x1="106.801" y1="10.5605" x2="106.801" y2="80.0444" gradientUnits="userSpaceOnUse">
<stop stop-color="white"/>
<stop offset="1" stop-color="#282828" stop-opacity="0"/>
</linearGradient>
<linearGradient id="paint109_linear" x1="106.801" y1="10.5605" x2="106.801" y2="80.0444" gradientUnits="userSpaceOnUse">
<stop stop-color="white"/>
<stop offset="1" stop-color="#282828" stop-opacity="0"/>
</linearGradient>
<linearGradient id="paint110_linear" x1="106.801" y1="10.5605" x2="106.801" y2="80.0444" gradientUnits="userSpaceOnUse">
<stop stop-color="white"/>
<stop offset="1" stop-color="#282828" stop-opacity="0"/>
</linearGradient>
<linearGradient id="paint111_linear" x1="106.801" y1="10.5605" x2="106.801" y2="80.0444" gradientUnits="userSpaceOnUse">
<stop stop-color="white"/>
<stop offset="1" stop-color="#282828" stop-opacity="0"/>
</linearGradient>
<linearGradient id="paint112_linear" x1="106.801" y1="10.5605" x2="106.801" y2="80.0444" gradientUnits="userSpaceOnUse">
<stop stop-color="white"/>
<stop offset="1" stop-color="#282828" stop-opacity="0"/>
</linearGradient>
<linearGradient id="paint113_linear" x1="106.801" y1="10.5605" x2="106.801" y2="80.0444" gradientUnits="userSpaceOnUse">
<stop stop-color="white"/>
<stop offset="1" stop-color="#282828" stop-opacity="0"/>
</linearGradient>
<linearGradient id="paint114_linear" x1="106.801" y1="10.5605" x2="106.801" y2="80.0444" gradientUnits="userSpaceOnUse">
<stop stop-color="white"/>
<stop offset="1" stop-color="#282828" stop-opacity="0"/>
</linearGradient>
<linearGradient id="paint115_linear" x1="106.801" y1="10.5605" x2="106.801" y2="80.0444" gradientUnits="userSpaceOnUse">
<stop stop-color="white"/>
<stop offset="1" stop-color="#282828" stop-opacity="0"/>
</linearGradient>
<linearGradient id="paint116_linear" x1="106.801" y1="10.5605" x2="106.801" y2="80.0444" gradientUnits="userSpaceOnUse">
<stop stop-color="white"/>
<stop offset="1" stop-color="#282828" stop-opacity="0"/>
</linearGradient>
<linearGradient id="paint117_linear" x1="106.801" y1="10.5605" x2="106.801" y2="80.0444" gradientUnits="userSpaceOnUse">
<stop stop-color="white"/>
<stop offset="1" stop-color="#282828" stop-opacity="0"/>
</linearGradient>
<linearGradient id="paint118_linear" x1="106.801" y1="10.5605" x2="106.801" y2="80.0444" gradientUnits="userSpaceOnUse">
<stop stop-color="white"/>
<stop offset="1" stop-color="#282828" stop-opacity="0"/>
</linearGradient>
<linearGradient id="paint119_linear" x1="106.801" y1="10.5605" x2="106.801" y2="80.0444" gradientUnits="userSpaceOnUse">
<stop stop-color="white"/>
<stop offset="1" stop-color="#282828" stop-opacity="0"/>
</linearGradient>
<linearGradient id="paint120_linear" x1="106.801" y1="10.5605" x2="106.801" y2="80.0444" gradientUnits="userSpaceOnUse">
<stop stop-color="white"/>
<stop offset="1" stop-color="#282828" stop-opacity="0"/>
</linearGradient>
<linearGradient id="paint121_linear" x1="106.801" y1="10.5605" x2="106.801" y2="80.0444" gradientUnits="userSpaceOnUse">
<stop stop-color="white"/>
<stop offset="1" stop-color="#282828" stop-opacity="0"/>
</linearGradient>
<linearGradient id="paint122_linear" x1="106.801" y1="10.5605" x2="106.801" y2="80.0444" gradientUnits="userSpaceOnUse">
<stop stop-color="white"/>
<stop offset="1" stop-color="#282828" stop-opacity="0"/>
</linearGradient>
<linearGradient id="paint123_linear" x1="106.801" y1="10.5605" x2="106.801" y2="80.0444" gradientUnits="userSpaceOnUse">
<stop stop-color="white"/>
<stop offset="1" stop-color="#282828" stop-opacity="0"/>
</linearGradient>
<linearGradient id="paint124_linear" x1="106.801" y1="10.5605" x2="106.801" y2="80.0444" gradientUnits="userSpaceOnUse">
<stop stop-color="white"/>
<stop offset="1" stop-color="#282828" stop-opacity="0"/>
</linearGradient>
<linearGradient id="paint125_linear" x1="106.801" y1="10.5605" x2="106.801" y2="80.0444" gradientUnits="userSpaceOnUse">
<stop stop-color="white"/>
<stop offset="1" stop-color="#282828" stop-opacity="0"/>
</linearGradient>
<linearGradient id="paint126_linear" x1="106.801" y1="10.5605" x2="106.801" y2="80.0444" gradientUnits="userSpaceOnUse">
<stop stop-color="white"/>
<stop offset="1" stop-color="#282828" stop-opacity="0"/>
</linearGradient>
<linearGradient id="paint127_linear" x1="106.801" y1="10.5605" x2="106.801" y2="80.0444" gradientUnits="userSpaceOnUse">
<stop stop-color="white"/>
<stop offset="1" stop-color="#282828" stop-opacity="0"/>
</linearGradient>
<linearGradient id="paint128_linear" x1="106.801" y1="10.5605" x2="106.801" y2="80.0444" gradientUnits="userSpaceOnUse">
<stop stop-color="white"/>
<stop offset="1" stop-color="#282828" stop-opacity="0"/>
</linearGradient>
<linearGradient id="paint129_linear" x1="106.801" y1="10.5605" x2="106.801" y2="80.0444" gradientUnits="userSpaceOnUse">
<stop stop-color="white"/>
<stop offset="1" stop-color="#282828" stop-opacity="0"/>
</linearGradient>
<linearGradient id="paint130_linear" x1="106.801" y1="10.5605" x2="106.801" y2="80.0444" gradientUnits="userSpaceOnUse">
<stop stop-color="white"/>
<stop offset="1" stop-color="#282828" stop-opacity="0"/>
</linearGradient>
<linearGradient id="paint131_linear" x1="106.801" y1="10.5605" x2="106.801" y2="80.0444" gradientUnits="userSpaceOnUse">
<stop stop-color="white"/>
<stop offset="1" stop-color="#282828" stop-opacity="0"/>
</linearGradient>
<linearGradient id="paint132_linear" x1="106.801" y1="10.5605" x2="106.801" y2="80.0444" gradientUnits="userSpaceOnUse">
<stop stop-color="white"/>
<stop offset="1" stop-color="#282828" stop-opacity="0"/>
</linearGradient>
<linearGradient id="paint133_linear" x1="106.801" y1="10.5605" x2="106.801" y2="80.0444" gradientUnits="userSpaceOnUse">
<stop stop-color="white"/>
<stop offset="1" stop-color="#282828" stop-opacity="0"/>
</linearGradient>
<linearGradient id="paint134_linear" x1="106.801" y1="10.5605" x2="106.801" y2="80.0444" gradientUnits="userSpaceOnUse">
<stop stop-color="white"/>
<stop offset="1" stop-color="#282828" stop-opacity="0"/>
</linearGradient>
<linearGradient id="paint135_linear" x1="106.801" y1="10.5605" x2="106.801" y2="80.0444" gradientUnits="userSpaceOnUse">
<stop stop-color="white"/>
<stop offset="1" stop-color="#282828" stop-opacity="0"/>
</linearGradient>
</defs>
</svg>
