<svg width="104" height="48" viewBox="0 0 104 48" fill="none" xmlns="http://www.w3.org/2000/svg">
<circle cx="4" cy="4" r="4" fill="#E7E7E7" fill-opacity="0.25"/>
<circle cx="20" cy="4" r="4" fill="#E7E7E7" fill-opacity="0.25"/>
<circle cx="36" cy="4" r="4" fill="#E7E7E7" fill-opacity="0.25"/>
<circle cx="52" cy="4" r="4" fill="#E7E7E7" fill-opacity="0.25"/>
<circle cx="68" cy="4" r="4" fill="#E7E7E7" fill-opacity="0.25"/>
<circle cx="84" cy="4" r="4" fill="#E7E7E7" fill-opacity="0.25"/>
<circle cx="100" cy="4" r="4" fill="#E7E7E7" fill-opacity="0.25"/>
<circle cx="4" cy="24" r="4" fill="#E7E7E7" fill-opacity="0.25"/>
<circle cx="20" cy="24" r="4" fill="#E7E7E7" fill-opacity="0.25"/>
<circle cx="36" cy="24" r="4" fill="#E7E7E7" fill-opacity="0.25"/>
<circle cx="52" cy="24" r="4" fill="#E7E7E7" fill-opacity="0.25"/>
<circle cx="68" cy="24" r="4" fill="#E7E7E7" fill-opacity="0.25"/>
<circle cx="84" cy="24" r="4" fill="#E7E7E7" fill-opacity="0.25"/>
<circle cx="100" cy="24" r="4" fill="#E7E7E7" fill-opacity="0.25"/>
<circle cx="4" cy="44" r="4" fill="#E7E7E7" fill-opacity="0.25"/>
<circle cx="20" cy="44" r="4" fill="#E7E7E7" fill-opacity="0.25"/>
<circle cx="36" cy="44" r="4" fill="#E7E7E7" fill-opacity="0.25"/>
<circle cx="52" cy="44" r="4" fill="#E7E7E7" fill-opacity="0.25"/>
<circle cx="68" cy="44" r="4" fill="#E7E7E7" fill-opacity="0.25"/>
<circle cx="84" cy="44" r="4" fill="#E7E7E7" fill-opacity="0.25"/>
<circle cx="100" cy="44" r="4" fill="#E7E7E7" fill-opacity="0.25"/>
</svg>
