<svg width="183" height="200" viewBox="0 0 183 200" fill="none" xmlns="http://www.w3.org/2000/svg">
<path d="M-1.51279 210.817L-11.9475 197.1L163.138 58.4225C166.601 55.6792 171.577 56.306 174.252 59.8224L175 60.8052C177.675 64.3216 177.036 69.3961 173.572 72.1394L-1.51279 210.817Z" fill="#E71111"/>
<path d="M-68.5383 295.29L-78.973 281.573L96.112 142.895C99.5755 140.152 104.552 140.779 107.227 144.295L107.974 145.278C110.649 148.794 110.01 153.869 106.547 156.612L-68.5383 295.29Z" fill="#E71111"/>
<path d="M-61.9091 225.534L-72.3438 211.817L102.741 73.1394C106.205 70.3961 111.181 71.0229 113.856 74.5393L114.604 75.522C117.279 79.0385 116.639 84.113 113.176 86.8562L-61.9091 225.534Z" fill="#E71111"/>
</svg>
