<svg width="202" height="187" viewBox="0 0 202 187" fill="none" xmlns="http://www.w3.org/2000/svg">
<path d="M-9.81012 -0.796997L4.14045 -10.9172L138.802 167.275C141.466 170.8 140.726 175.761 137.15 178.355L136.15 179.08C132.574 181.675 127.515 180.92 124.851 177.396L-9.81012 -0.796997Z" fill="white"/>
<path d="M-92.7372 -69.7256L-78.7867 -79.8458L55.8746 98.3467C58.5385 101.872 57.7987 106.832 54.2224 109.427L53.2229 110.152C49.6466 112.746 44.5879 111.992 41.9241 108.467L-92.7372 -69.7256Z" fill="white"/>
<path d="M-23.1501 -61.5123L-9.19955 -71.6325L125.462 106.56C128.126 110.085 127.386 115.046 123.81 117.64L122.81 118.365C119.234 120.96 114.175 120.205 111.511 116.68L-23.1501 -61.5123Z" fill="white"/>
</svg>
